<svg xmlns="http://www.w3.org/2000/svg" viewBox="0 0 640 335" width="640" height="335">
<rect width="639.8999999999977" height="334.7" fill="#fafafa"/>
<polygon points="619.9,314.7 619.9,314.7 382.1,314.7 382.1,296.2 358.3,296.2 358.3,314.7 265.4,314.7 265.4,301.2 248.9,301.2 248.9,314.7 155.9,314.7 155.9,296.2 131.9,296.2 131.9,314.7 35.5,314.7 35.5,301.2 20.0,301.2 20.0,222.0 78.7,222.0 141.7,222.0 141.7,280.2 143.5,280.2 143.5,222.0 160.5,222.0 160.5,180.2 120.5,180.2 120.5,142.0 154.7,142.0 154.7,164.2 160.5,164.2 160.5,140.2 78.7,140.2 78.7,164.2 84.5,164.2 84.5,142.0 118.7,142.0 118.7,180.2 78.7,180.2 78.7,182.0 158.7,182.0 158.7,200.1 138.5,200.1 138.5,220.2 84.5,220.2 84.5,198.0 78.7,198.0 78.7,220.2 40.2,220.2 40.2,200.1 20.0,200.1 20.0,40.1 122.9,40.1 122.9,102.7 129.5,102.7 129.5,100.9 124.7,100.9 124.7,42.7 182.9,42.7 182.9,100.9 178.1,100.9 178.1,102.7 184.7,102.7 184.7,40.9 178.7,40.9 178.7,23.5 210.9,23.5 210.9,20.1 138.1,20.1 138.1,38.3 20.0,38.3 20.0,20.0 245.9,20.0 245.9,83.9 255.9,83.9 255.9,78.1 247.7,78.1 247.7,40.1 266.8,40.1 266.8,23.5 355.8,23.5 355.8,78.1 347.6,78.1 347.6,83.9 357.6,83.9 357.6,40.1 396.5,40.1 396.5,23.4 427.8,23.4 427.8,72.1 381.6,72.1 381.6,57.0 379.8,57.0 379.8,73.9 429.6,73.9 429.6,23.4 432.0,23.4 432.0,20.0 467.0,20.0 467.0,23.4 481.9,23.4 481.9,43.9 475.0,43.9 475.0,105.7 481.6,105.7 481.6,103.9 476.8,103.9 476.8,45.7 535.0,45.7 535.0,103.9 530.2,103.9 530.2,105.7 536.8,105.7 536.8,40.3 619.9,40.3 619.9,200.2 600.0,200.2 600.0,220.3 619.9,220.3 619.9,301.3 605.0,301.3 605.0,314.7 619.9,314.7" fill="#e3f2fd" stroke="#90caf9" stroke-width="0.5" opacity="0.7"/>
<text x="317.0" y="170.1" font-size="4" text-anchor="middle" fill="#1565c0">zone_00 (401.5m²)</text>
<polygon points="619.9,38.5 619.9,40.3 536.8,40.3 536.8,105.7 530.2,105.7 530.2,103.9 535.0,103.9 535.0,45.7 476.8,45.7 476.8,103.9 481.6,103.9 481.6,105.7 475.0,105.7 475.0,43.9 481.9,43.9 481.9,23.4 467.0,23.4 467.0,20.0 502.3,20.0 502.3,38.5 619.9,38.5" fill="#fce4ec" stroke="#90caf9" stroke-width="0.5" opacity="0.7"/>
<text x="510.1" y="43.8" font-size="4" text-anchor="middle" fill="#1565c0">zone_01 (3.0m²)</text>
<polygon points="502.3,20.0 619.9,20.0 619.9,38.5 502.3,38.5 502.3,20.0" fill="#e8f5e9" stroke="#90caf9" stroke-width="0.5" opacity="0.7"/>
<text x="561.1" y="29.3" font-size="4" text-anchor="middle" fill="#1565c0">zone_02 (5.4m²)</text>
<polygon points="245.9,20.0 432.0,20.0 432.0,23.4 429.6,23.4 429.6,73.9 379.8,73.9 379.8,57.0 381.6,57.0 381.6,72.1 427.8,72.1 427.8,23.4 396.5,23.4 396.5,40.1 357.6,40.1 357.6,83.9 347.6,83.9 347.6,78.1 355.8,78.1 355.8,23.5 266.8,23.5 266.8,40.1 247.7,40.1 247.7,78.1 255.9,78.1 255.9,83.9 245.9,83.9 245.9,20.0" fill="#fff3e0" stroke="#90caf9" stroke-width="0.5" opacity="0.7"/>
<text x="339.7" y="36.0" font-size="4" text-anchor="middle" fill="#1565c0">zone_03 (5.3m²)</text>
<polygon points="20.0,40.1 20.0,38.3 138.1,38.3 138.1,20.1 210.9,20.1 210.9,23.5 178.7,23.5 178.7,40.9 184.7,40.9 184.7,102.7 178.1,102.7 178.1,100.9 182.9,100.9 182.9,42.7 124.7,42.7 124.7,100.9 129.5,100.9 129.5,102.7 122.9,102.7 122.9,40.1 20.0,40.1" fill="#f3e5f5" stroke="#90caf9" stroke-width="0.5" opacity="0.7"/>
<text x="148.7" y="38.8" font-size="4" text-anchor="middle" fill="#1565c0">zone_04 (3.8m²)</text>
<polygon points="78.7,220.2 78.7,198.0 84.5,198.0 84.5,220.2 138.5,220.2 138.5,200.1 158.7,200.1 158.7,182.0 78.7,182.0 78.7,180.2 118.7,180.2 118.7,142.0 84.5,142.0 84.5,164.2 78.7,164.2 78.7,140.2 160.5,140.2 160.5,164.2 154.7,164.2 154.7,142.0 120.5,142.0 120.5,180.2 160.5,180.2 160.5,222.0 143.5,222.0 141.7,222.0 78.7,222.0 78.7,220.2" fill="#e0f7fa" stroke="#90caf9" stroke-width="0.5" opacity="0.7"/>
<text x="126.6" y="187.1" font-size="4" text-anchor="middle" fill="#1565c0">zone_05 (3.4m²)</text>
<polygon points="246.0,209.2 246.0,200.1 251.8,200.1 251.8,171.1 217.6,171.0 217.6,193.2 211.8,193.2 211.8,169.2 293.6,169.2 293.6,193.2 287.8,193.3 287.8,171.1 253.6,171.1 253.6,200.1 266.9,200.1 266.9,209.2 293.6,209.2 293.6,211.0 266.9,211.0 266.9,220.2 246.0,220.2 246.0,211.0 213.6,211.0 213.6,249.2 287.8,249.2 287.8,227.1 293.6,227.0 293.6,251.0 211.8,251.0 211.8,209.2 246.0,209.2" fill="#fff9c4" stroke="#90caf9" stroke-width="0.5" opacity="0.7"/>
<text x="255.4" y="207.5" font-size="4" text-anchor="middle" fill="#1565c0">zone_06 (3.3m²)</text>
<polygon points="347.8,169.3 429.6,169.3 429.6,193.3 423.8,193.3 423.8,171.1 389.6,171.1 389.6,209.3 429.6,209.3 429.6,211.1 375.5,211.1 375.5,220.2 349.6,220.2 349.6,249.3 423.8,249.3 423.8,227.1 429.6,227.1 429.6,251.1 347.8,251.1 347.8,200.1 375.5,200.1 375.5,209.2 387.8,209.2 387.8,171.1 349.6,171.1 349.6,185.1 347.8,185.1 347.8,169.3" fill="#fbe9e7" stroke="#90caf9" stroke-width="0.5" opacity="0.7"/>
<text x="383.5" y="209.5" font-size="4" text-anchor="middle" fill="#1565c0">zone_07 (3.4m²)</text>
<polygon points="480.1,165.3 541.9,165.3 541.9,227.1 480.1,227.1 480.1,197.2 481.9,197.2 481.9,200.2 502.0,200.2 502.0,225.3 540.1,225.3 540.1,167.1 481.9,167.1 481.9,182.2 480.1,182.2 480.1,165.3" fill="#e8eaf6" stroke="#90caf9" stroke-width="0.5" opacity="0.7"/>
<text x="501.3" y="205.6" font-size="4" text-anchor="middle" fill="#1565c0">zone_08 (2.3m²)</text>
<polygon points="484.5,295.3 530.2,295.3 530.2,314.7 484.5,314.7 484.5,295.3" fill="#f1f8e9" stroke="#90caf9" stroke-width="0.5" opacity="0.7"/>
<text x="507.3" y="305.0" font-size="4" text-anchor="middle" fill="#1565c0">zone_09 (2.2m²)</text>
<polygon points="432.0,20.0 432.0,23.4 429.6,23.4 429.6,73.9 379.8,73.9 379.8,57.0 381.6,57.0 381.6,72.1 427.8,72.1 427.8,23.4 396.5,23.4 396.5,40.1 357.6,40.1 357.6,83.9 347.6,83.9 347.6,78.1 355.8,78.1 355.8,23.5 266.8,23.5 266.8,40.1 247.7,40.1 247.7,78.1 255.9,78.1 255.9,83.9 245.9,83.9 245.9,20.0" fill="#455a64" stroke="#263238" stroke-width="0.3"/>
<polygon points="20.0,38.3 138.1,38.3 138.1,20.1 210.9,20.1 210.9,23.5 178.7,23.5 178.7,40.9 184.7,40.9 184.7,102.7 178.1,102.7 178.1,100.9 182.9,100.9 182.9,42.7 124.7,42.7 124.7,100.9 129.5,100.9 129.5,102.7 122.9,102.7 122.9,40.1 20.0,40.1" fill="#455a64" stroke="#263238" stroke-width="0.3"/>
<polygon points="84.5,220.2 84.5,198.0 78.7,198.0 78.7,222.0 160.5,222.0 160.5,180.2 120.5,180.2 120.5,142.0 154.7,142.0 154.7,164.2 160.5,164.2 160.5,140.2 78.7,140.2 78.7,164.2 84.5,164.2 84.5,142.0 118.7,142.0 118.7,180.2 78.7,180.2 78.7,182.0 158.7,182.0 158.7,200.1 138.5,200.1 138.5,220.2" fill="#455a64" stroke="#263238" stroke-width="0.3"/>
<polygon points="246.0,209.2 211.8,209.2 211.8,251.0 293.6,251.0 293.6,227.0 287.8,227.1 287.8,249.2 213.6,249.2 213.6,211.0 246.0,211.0 246.0,220.2 266.9,220.2 266.9,211.0 293.6,211.0 293.6,209.2 266.9,209.2 266.9,200.1 253.6,200.1 253.6,171.1 287.8,171.1 287.8,193.3 293.6,193.2 293.6,169.2 211.8,169.2 211.8,193.2 217.6,193.2 217.6,171.0 251.8,171.1 251.8,200.1 246.0,200.1" fill="#455a64" stroke="#263238" stroke-width="0.3"/>
<polygon points="347.8,169.3 429.6,169.3 429.6,193.3 423.8,193.3 423.8,171.1 389.6,171.1 389.6,209.3 429.6,209.3 429.6,211.1 375.5,211.1 375.5,220.2 349.6,220.2 349.6,249.3 423.8,249.3 423.8,227.1 429.6,227.1 429.6,251.1 347.8,251.1 347.8,200.1 375.5,200.1 375.5,209.2 387.8,209.2 387.8,171.1 349.6,171.1 349.6,185.1 347.8,185.1" fill="#455a64" stroke="#263238" stroke-width="0.3"/>
<polygon points="480.1,165.3 541.9,165.3 541.9,227.1 480.1,227.1 480.1,197.2 481.9,197.2 481.9,200.2 502.0,200.2 502.0,225.3 540.1,225.3 540.1,167.1 481.9,167.1 481.9,182.2 480.1,182.2" fill="#455a64" stroke="#263238" stroke-width="0.3"/>
<polygon points="484.5,295.3 530.2,295.3 530.2,314.7 484.5,314.7" fill="#455a64" stroke="#263238" stroke-width="0.3"/>
<polyline points="20.0,38.3 20.0,314.7 20.0,314.7 619.9,314.7 619.9,40.3" fill="none" stroke="#263238" stroke-width="0.5"/>
<polygon points="619.9,38.5 619.9,40.3 536.8,40.3 536.8,105.7 530.2,105.7 530.2,103.9 535.0,103.9 535.0,45.7 476.8,45.7 476.8,103.9 481.6,103.9 481.6,105.7 475.0,105.7 475.0,43.9 481.9,43.9 481.9,23.4 467.0,23.4 467.0,20.0 502.3,20.0 502.3,38.5" fill="#455a64" stroke="#263238" stroke-width="0.3"/>
<polygon points="273.7,64.3 329.8,64.3 329.8,78.1 273.7,78.1" fill="#455a64" stroke="#263238" stroke-width="0.3"/>
<polygon points="143.5,280.2 141.7,280.2 141.7,222.0 143.5,222.0" fill="#455a64" stroke="#263238" stroke-width="0.3"/>
<polygon points="20.0,220.2 78.7,220.2 78.7,222.0 20.0,222.0" fill="#455a64" stroke="#263238" stroke-width="0.3"/>
<polygon points="20.0,200.1 40.2,200.1 40.2,220.2 20.0,220.2" fill="#b71c1c" stroke="#880e4f" stroke-width="0.3"/>
<polygon points="20.0,314.7 35.5,314.7 35.5,301.2 20.0,301.2" fill="#b71c1c" stroke="#880e4f" stroke-width="0.3"/>
<polygon points="131.9,296.2 155.9,296.2 155.9,314.7 131.9,314.7" fill="#b71c1c" stroke="#880e4f" stroke-width="0.3"/>
<polygon points="248.9,301.2 265.4,301.2 265.4,314.7 248.9,314.7" fill="#b71c1c" stroke="#880e4f" stroke-width="0.3"/>
<polygon points="358.3,296.2 382.1,296.2 382.1,314.7 358.3,314.7" fill="#b71c1c" stroke="#880e4f" stroke-width="0.3"/>
<polygon points="605.0,301.3 619.9,301.3 619.9,314.7 605.0,314.7" fill="#b71c1c" stroke="#880e4f" stroke-width="0.3"/>
<polygon points="600.0,200.2 619.9,200.2 619.9,220.3 600.0,220.3" fill="#b71c1c" stroke="#880e4f" stroke-width="0.3"/>
<line x1="20" y1="326.7" x2="120.0" y2="326.7" stroke="#000" stroke-width="1"/>
<text x="70.0" y="324.7" font-size="4" text-anchor="middle">5m</text>
</svg>