<svg xmlns="http://www.w3.org/2000/svg" width="1504" height="1046" viewBox="0 0 1504 1046">
<rect width="1504" height="1046" fill="#f5f5f5"/>
<polygon points="1176.5,559.5 1176.5,448.0 1297.0,448.0 1297.0,568.5 1176.5,559.5" fill="#4FC3F7" fill-opacity="0.3" stroke="#4FC3F7" stroke-width="2"/>
<text x="1237.5" y="506.0" text-anchor="middle" dominant-baseline="middle" font-family="sans-serif" font-size="12" fill="#333">会議ブース１</text>
<polygon points="1326.5,434.5 1459.5,434.5 1459.5,573.0 1326.5,573.0 1326.5,434.5" fill="#81C784" fill-opacity="0.3" stroke="#81C784" stroke-width="2"/>
<text x="1393.0" y="503.8" text-anchor="middle" dominant-baseline="middle" font-family="sans-serif" font-size="12" fill="#333">room_01</text>
<polygon points="1184.8,941.5 1184.8,901.5 1314.2,901.5 1314.2,941.5 1184.8,941.5" fill="#FFB74D" fill-opacity="0.3" stroke="#FFB74D" stroke-width="2"/>
<text x="1249.5" y="921.5" text-anchor="middle" dominant-baseline="middle" font-family="sans-serif" font-size="12" fill="#333">room_02</text>
<polygon points="774.1,906.8 770.6,668.5 1003.5,675.9 1003.5,748.1 958.5,761.5 947.2,856.9 929.2,846.9 929.0,761.5 895.2,760.5 887.7,742.1 979.0,732.0 979.0,692.0 854.0,692.0 854.0,732.0 872.5,744.5 858.5,761.5 870.8,823.9 854.0,834.0 854.0,859.2 870.9,870.5 858.5,884.2 864.8,933.7 1019.0,932.0 1015.2,742.1 1057.0,738.6 1058.3,806.9 1044.0,817.0 1058.4,840.8 1044.0,864.0 1058.4,887.8 1051.9,960.0 839.1,961.3 829.0,907.0 774.1,906.8" fill="#E57373" fill-opacity="0.3" stroke="#E57373" stroke-width="2"/>
<text x="896.3" y="810.6" text-anchor="middle" dominant-baseline="middle" font-family="sans-serif" font-size="12" fill="#333">オフィスブース3</text>
<polygon points="909.0,506.0 920.3,409.1 938.3,419.1 938.5,489.0 1029.0,489.0 1029.2,377.3 1054.8,370.9 1054.8,514.8 920.3,518.4 909.0,506.0" fill="#BA68C8" fill-opacity="0.3" stroke="#BA68C8" stroke-width="2"/>
<text x="991.3" y="468.7" text-anchor="middle" dominant-baseline="middle" font-family="sans-serif" font-size="12" fill="#333">受付</text>
<polygon points="616.8,147.1 635.5,20.1 649.2,31.3 649.2,133.9 805.2,129.8 778.8,99.8 690.4,96.1 686.8,31.3 698.0,20.1 738.7,36.1 711.8,74.8 805.2,74.8 781.4,30.9 865.2,20.1 876.5,74.8 900.2,88.3 987.3,99.8 1042.5,88.3 1053.7,99.5 1046.0,123.8 998.5,124.7 995.7,217.7 952.8,222.0 942.8,124.8 892.3,122.6 886.8,99.8 856.1,96.9 830.3,51.2 830.3,133.5 890.2,133.7 900.0,148.4 802.8,159.7 807.7,258.7 791.5,294.7 760.3,271.2 760.5,197.6 777.8,186.2 777.8,160.0 669.2,160.1 672.9,217.0 655.5,235.3 627.0,217.8 644.2,160.4 616.8,147.1" fill="#4DB6AC" fill-opacity="0.3" stroke="#4DB6AC" stroke-width="2"/>
<text x="809.9" y="131.6" text-anchor="middle" dominant-baseline="middle" font-family="sans-serif" font-size="12" fill="#333">room_03</text>
<polygon points="626.7,382.2 637.8,367.6 861.5,367.5 874.0,384.5 862.7,396.9 639.0,397.0 626.7,382.2" fill="#FFD54F" fill-opacity="0.3" stroke="#FFD54F" stroke-width="2"/>
<text x="750.3" y="382.3" text-anchor="middle" dominant-baseline="middle" font-family="sans-serif" font-size="12" fill="#333">room_04</text>
<polygon points="449.0,811.4 503.5,816.9 489.1,840.6 489.0,936.4 449.0,936.4 449.0,811.4" fill="#A1887F" fill-opacity="0.3" stroke="#A1887F" stroke-width="2"/>
<text x="469.8" y="873.1" text-anchor="middle" dominant-baseline="middle" font-family="sans-serif" font-size="12" fill="#333">room_05</text>
<polygon points="45.0,565.5 45.0,434.0 266.8,434.0 266.8,565.5 45.0,565.5" fill="#90A4AE" fill-opacity="0.3" stroke="#90A4AE" stroke-width="2"/>
<text x="155.9" y="499.8" text-anchor="middle" dominant-baseline="middle" font-family="sans-serif" font-size="12" fill="#333">room_06</text>
<polygon points="296.2,440.5 416.8,440.5 416.8,560.1 296.2,561.0 296.2,440.5" fill="#F06292" fill-opacity="0.3" stroke="#F06292" stroke-width="2"/>
<text x="356.4" y="500.5" text-anchor="middle" dominant-baseline="middle" font-family="sans-serif" font-size="12" fill="#333">会議ブース２</text>
<polygon points="156.2,876.2 156.5,813.8 170.8,803.8 156.3,780.0 170.8,756.8 156.3,733.0 159.9,662.9 226.0,669.3 220.7,686.6 195.8,688.8 195.8,859.2 327.8,863.8 360.8,863.8 341.8,668.1 382.1,662.9 385.7,733.0 371.2,744.3 385.7,768.0 382.1,885.1 168.8,888.8 156.2,876.2" fill="#4FC3F7" fill-opacity="0.3" stroke="#4FC3F7" stroke-width="2"/>
<text x="264.9" y="790.0" text-anchor="middle" dominant-baseline="middle" font-family="sans-serif" font-size="12" fill="#333">オープンブース１</text>
<polygon points="789.2,502.2 761.1,544.3 711.5,554.2 669.4,526.1 659.5,476.4 687.7,434.4 737.3,424.5 779.3,452.6 789.2,502.2" fill="#81C784" fill-opacity="0.3" stroke="#81C784" stroke-width="2"/>
<text x="724.4" y="489.3" text-anchor="middle" dominant-baseline="middle" font-family="sans-serif" font-size="12" fill="#333">アメニティブース</text>
<polygon points="789.4,619.1 759.8,663.5 707.5,673.9 663.1,644.2 652.7,591.9 682.3,547.5 734.7,537.1 779.0,566.8 789.4,619.1" fill="#FFB74D" fill-opacity="0.3" stroke="#FFB74D" stroke-width="2"/>
<text x="721.1" y="605.5" text-anchor="middle" dominant-baseline="middle" font-family="sans-serif" font-size="12" fill="#333">オープンスペース</text>
</svg>