solid OpenSCAD_Model
  facet normal 0.980779 -0.195121 0
    outer loop
      vertex 16.6139 -4.45169 6
      vertex 17.0529 -2.24505 1.5
      vertex 17.0529 -2.24505 6
    endloop
  endfacet
  facet normal 0.980779 -0.195121 0
    outer loop
      vertex 17.0529 -2.24505 1.5
      vertex 16.6139 -4.45169 6
      vertex 16.6139 -4.45169 1.5
    endloop
  endfacet
  facet normal 0.555551 -0.831482 0
    outer loop
      vertex 8.6 -14.8956 1.5
      vertex 10.4707 -13.6457 6
      vertex 8.6 -14.8956 6
    endloop
  endfacet
  facet normal 0.555551 -0.831482 0
    outer loop
      vertex 10.4707 -13.6457 6
      vertex 8.6 -14.8956 1.5
      vertex 10.4707 -13.6457 1.5
    endloop
  endfacet
  facet normal 0.980779 0.195121 0
    outer loop
      vertex 17.0529 2.24505 6
      vertex 16.6139 4.45169 1.5
      vertex 16.6139 4.45169 6
    endloop
  endfacet
  facet normal 0.980779 0.195121 0
    outer loop
      vertex 16.6139 4.45169 1.5
      vertex 17.0529 2.24505 6
      vertex 17.0529 2.24505 1.5
    endloop
  endfacet
  facet normal 0.99786 0.0653817 0
    outer loop
      vertex 17.2 0 6
      vertex 17.0529 2.24505 1.5
      vertex 17.0529 2.24505 6
    endloop
  endfacet
  facet normal 0.99786 0.0653817 0
    outer loop
      vertex 17.0529 2.24505 1.5
      vertex 17.2 0 6
      vertex 17.2 0 1.5
    endloop
  endfacet
  facet normal -0.195121 0.980779 0
    outer loop
      vertex -2.24505 17.0529 1.5
      vertex -4.45169 16.6139 6
      vertex -2.24505 17.0529 6
    endloop
  endfacet
  facet normal -0.195121 0.980779 0
    outer loop
      vertex -4.45169 16.6139 6
      vertex -2.24505 17.0529 1.5
      vertex -4.45169 16.6139 1.5
    endloop
  endfacet
  facet normal 0.442291 -0.896872 0
    outer loop
      vertex 6.58215 -15.8907 1.5
      vertex 8.6 -14.8956 6
      vertex 6.58215 -15.8907 6
    endloop
  endfacet
  facet normal 0.442291 -0.896872 0
    outer loop
      vertex 8.6 -14.8956 6
      vertex 6.58215 -15.8907 1.5
      vertex 8.6 -14.8956 1.5
    endloop
  endfacet
  facet normal 0 0 1
    outer loop
      vertex 16.8 0 6
      vertex 17.2 0 6
      vertex 17.0529 2.24505 6
    endloop
  endfacet
  facet normal 0 0 1
    outer loop
      vertex 17.2 0 6
      vertex 16.8 0 6
      vertex 17.0529 -2.24505 6
    endloop
  endfacet
  facet normal 0 0 1
    outer loop
      vertex 17.0529 2.24505 6
      vertex 16.6563 2.19284 6
      vertex 16.8 0 6
    endloop
  endfacet
  facet normal 0 0 1
    outer loop
      vertex 16.6139 4.45169 6
      vertex 16.6563 2.19284 6
      vertex 17.0529 2.24505 6
    endloop
  endfacet
  facet normal 0 0 1
    outer loop
      vertex 16.6139 4.45169 6
      vertex 16.2276 4.34816 6
      vertex 16.6563 2.19284 6
    endloop
  endfacet
  facet normal 0 0 1
    outer loop
      vertex 15.8907 6.58215 6
      vertex 16.2276 4.34816 6
      vertex 16.6139 4.45169 6
    endloop
  endfacet
  facet normal 0 0 1
    outer loop
      vertex 15.8907 6.58215 6
      vertex 15.5212 6.42908 6
      vertex 16.2276 4.34816 6
    endloop
  endfacet
  facet normal 0 0 1
    outer loop
      vertex 14.8956 8.6 6
      vertex 15.5212 6.42908 6
      vertex 15.8907 6.58215 6
    endloop
  endfacet
  facet normal 0 0 1
    outer loop
      vertex 14.8956 8.6 6
      vertex 14.5492 8.4 6
      vertex 15.5212 6.42908 6
    endloop
  endfacet
  facet normal 0 0 1
    outer loop
      vertex 13.6457 10.4707 6
      vertex 14.5492 8.4 6
      vertex 14.8956 8.6 6
    endloop
  endfacet
  facet normal 0 0 1
    outer loop
      vertex 13.6457 10.4707 6
      vertex 13.3283 10.2272 6
      vertex 14.5492 8.4 6
    endloop
  endfacet
  facet normal 0 0 1
    outer loop
      vertex 12.1622 12.1622 6
      vertex 13.3283 10.2272 6
      vertex 13.6457 10.4707 6
    endloop
  endfacet
  facet normal 0 0 1
    outer loop
      vertex 12.1622 12.1622 6
      vertex 11.8794 11.8794 6
      vertex 13.3283 10.2272 6
    endloop
  endfacet
  facet normal 0 0 1
    outer loop
      vertex 10.4707 13.6457 6
      vertex 11.8794 11.8794 6
      vertex 12.1622 12.1622 6
    endloop
  endfacet
  facet normal 0 0 1
    outer loop
      vertex 10.4707 13.6457 6
      vertex 10.2272 13.3283 6
      vertex 11.8794 11.8794 6
    endloop
  endfacet
  facet normal 0 0 1
    outer loop
      vertex 8.6 14.8956 6
      vertex 10.2272 13.3283 6
      vertex 10.4707 13.6457 6
    endloop
  endfacet
  facet normal 0 0 1
    outer loop
      vertex 8.6 14.8956 6
      vertex 8.4 14.5492 6
      vertex 10.2272 13.3283 6
    endloop
  endfacet
  facet normal 0 0 1
    outer loop
      vertex 6.58215 15.8907 6
      vertex 8.4 14.5492 6
      vertex 8.6 14.8956 6
    endloop
  endfacet
  facet normal 0 0 1
    outer loop
      vertex 6.58215 15.8907 6
      vertex 6.42908 15.5212 6
      vertex 8.4 14.5492 6
    endloop
  endfacet
  facet normal 0 0 1
    outer loop
      vertex 4.45169 16.6139 6
      vertex 6.42908 15.5212 6
      vertex 6.58215 15.8907 6
    endloop
  endfacet
  facet normal 0 0 1
    outer loop
      vertex 4.45169 16.6139 6
      vertex 4.34816 16.2276 6
      vertex 6.42908 15.5212 6
    endloop
  endfacet
  facet normal 0 0 1
    outer loop
      vertex 2.24505 17.0529 6
      vertex 4.34816 16.2276 6
      vertex 4.45169 16.6139 6
    endloop
  endfacet
  facet normal 0 0 1
    outer loop
      vertex 2.24505 17.0529 6
      vertex 2.19284 16.6563 6
      vertex 4.34816 16.2276 6
    endloop
  endfacet
  facet normal 0 0 1
    outer loop
      vertex 0 17.2 6
      vertex 2.19284 16.6563 6
      vertex 2.24505 17.0529 6
    endloop
  endfacet
  facet normal 0 0 1
    outer loop
      vertex 0 17.2 6
      vertex 0 16.8 6
      vertex 2.19284 16.6563 6
    endloop
  endfacet
  facet normal 0 0 1
    outer loop
      vertex 0 17.2 6
      vertex -2.19284 16.6563 6
      vertex 0 16.8 6
    endloop
  endfacet
  facet normal -0 0 1
    outer loop
      vertex -2.24505 17.0529 6
      vertex -2.19284 16.6563 6
      vertex 0 17.2 6
    endloop
  endfacet
  facet normal 0 0 1
    outer loop
      vertex -2.24505 17.0529 6
      vertex -4.34816 16.2276 6
      vertex -2.19284 16.6563 6
    endloop
  endfacet
  facet normal -0 0 1
    outer loop
      vertex -4.45169 16.6139 6
      vertex -4.34816 16.2276 6
      vertex -2.24505 17.0529 6
    endloop
  endfacet
  facet normal 0 0 1
    outer loop
      vertex -4.45169 16.6139 6
      vertex -6.42908 15.5212 6
      vertex -4.34816 16.2276 6
    endloop
  endfacet
  facet normal -0 0 1
    outer loop
      vertex -6.58215 15.8907 6
      vertex -6.42908 15.5212 6
      vertex -4.45169 16.6139 6
    endloop
  endfacet
  facet normal 0 0 1
    outer loop
      vertex -6.58215 15.8907 6
      vertex -8.4 14.5492 6
      vertex -6.42908 15.5212 6
    endloop
  endfacet
  facet normal -0 0 1
    outer loop
      vertex -8.6 14.8956 6
      vertex -8.4 14.5492 6
      vertex -6.58215 15.8907 6
    endloop
  endfacet
  facet normal 0 0 1
    outer loop
      vertex -8.6 14.8956 6
      vertex -10.2272 13.3283 6
      vertex -8.4 14.5492 6
    endloop
  endfacet
  facet normal -0 0 1
    outer loop
      vertex -10.4707 13.6457 6
      vertex -10.2272 13.3283 6
      vertex -8.6 14.8956 6
    endloop
  endfacet
  facet normal 0 0 1
    outer loop
      vertex -10.4707 13.6457 6
      vertex -11.8794 11.8794 6
      vertex -10.2272 13.3283 6
    endloop
  endfacet
  facet normal -0 0 1
    outer loop
      vertex -12.1622 12.1622 6
      vertex -11.8794 11.8794 6
      vertex -10.4707 13.6457 6
    endloop
  endfacet
  facet normal 0 0 1
    outer loop
      vertex -12.1622 12.1622 6
      vertex -13.3283 10.2272 6
      vertex -11.8794 11.8794 6
    endloop
  endfacet
  facet normal -0 0 1
    outer loop
      vertex -13.6457 10.4707 6
      vertex -13.3283 10.2272 6
      vertex -12.1622 12.1622 6
    endloop
  endfacet
  facet normal 0 0 1
    outer loop
      vertex -13.6457 10.4707 6
      vertex -14.5492 8.4 6
      vertex -13.3283 10.2272 6
    endloop
  endfacet
  facet normal -0 0 1
    outer loop
      vertex -14.8956 8.6 6
      vertex -14.5492 8.4 6
      vertex -13.6457 10.4707 6
    endloop
  endfacet
  facet normal 0 0 1
    outer loop
      vertex -14.8956 8.6 6
      vertex -15.5212 6.42908 6
      vertex -14.5492 8.4 6
    endloop
  endfacet
  facet normal -0 0 1
    outer loop
      vertex -15.8907 6.58215 6
      vertex -15.5212 6.42908 6
      vertex -14.8956 8.6 6
    endloop
  endfacet
  facet normal 0 0 1
    outer loop
      vertex -15.8907 6.58215 6
      vertex -16.2276 4.34816 6
      vertex -15.5212 6.42908 6
    endloop
  endfacet
  facet normal -0 0 1
    outer loop
      vertex -16.6139 4.45169 6
      vertex -16.2276 4.34816 6
      vertex -15.8907 6.58215 6
    endloop
  endfacet
  facet normal 0 0 1
    outer loop
      vertex -16.6139 4.45169 6
      vertex -16.6563 2.19284 6
      vertex -16.2276 4.34816 6
    endloop
  endfacet
  facet normal -0 0 1
    outer loop
      vertex -17.0529 2.24505 6
      vertex -16.6563 2.19284 6
      vertex -16.6139 4.45169 6
    endloop
  endfacet
  facet normal 0 0 1
    outer loop
      vertex -16.6563 2.19284 6
      vertex -17.0529 2.24505 6
      vertex -16.8 0 6
    endloop
  endfacet
  facet normal -0 0 1
    outer loop
      vertex 16.6563 -2.19284 6
      vertex 17.0529 -2.24505 6
      vertex 16.8 0 6
    endloop
  endfacet
  facet normal 0 0 1
    outer loop
      vertex 16.6563 -2.19284 6
      vertex 16.6139 -4.45169 6
      vertex 17.0529 -2.24505 6
    endloop
  endfacet
  facet normal -0 0 1
    outer loop
      vertex 16.2276 -4.34816 6
      vertex 16.6139 -4.45169 6
      vertex 16.6563 -2.19284 6
    endloop
  endfacet
  facet normal 0 0 1
    outer loop
      vertex 16.2276 -4.34816 6
      vertex 15.8907 -6.58215 6
      vertex 16.6139 -4.45169 6
    endloop
  endfacet
  facet normal -0 0 1
    outer loop
      vertex 15.5212 -6.42908 6
      vertex 15.8907 -6.58215 6
      vertex 16.2276 -4.34816 6
    endloop
  endfacet
  facet normal 0 0 1
    outer loop
      vertex 15.5212 -6.42908 6
      vertex 14.8956 -8.6 6
      vertex 15.8907 -6.58215 6
    endloop
  endfacet
  facet normal -0 0 1
    outer loop
      vertex 14.5492 -8.4 6
      vertex 14.8956 -8.6 6
      vertex 15.5212 -6.42908 6
    endloop
  endfacet
  facet normal 0 0 1
    outer loop
      vertex 14.5492 -8.4 6
      vertex 13.6457 -10.4707 6
      vertex 14.8956 -8.6 6
    endloop
  endfacet
  facet normal -0 0 1
    outer loop
      vertex 13.3283 -10.2272 6
      vertex 13.6457 -10.4707 6
      vertex 14.5492 -8.4 6
    endloop
  endfacet
  facet normal 0 0 1
    outer loop
      vertex 13.3283 -10.2272 6
      vertex 12.1622 -12.1622 6
      vertex 13.6457 -10.4707 6
    endloop
  endfacet
  facet normal -0 0 1
    outer loop
      vertex 11.8794 -11.8794 6
      vertex 12.1622 -12.1622 6
      vertex 13.3283 -10.2272 6
    endloop
  endfacet
  facet normal 0 0 1
    outer loop
      vertex 11.8794 -11.8794 6
      vertex 10.4707 -13.6457 6
      vertex 12.1622 -12.1622 6
    endloop
  endfacet
  facet normal -0 0 1
    outer loop
      vertex 10.2272 -13.3283 6
      vertex 10.4707 -13.6457 6
      vertex 11.8794 -11.8794 6
    endloop
  endfacet
  facet normal 0 0 1
    outer loop
      vertex 10.2272 -13.3283 6
      vertex 8.6 -14.8956 6
      vertex 10.4707 -13.6457 6
    endloop
  endfacet
  facet normal -0 0 1
    outer loop
      vertex 8.4 -14.5492 6
      vertex 8.6 -14.8956 6
      vertex 10.2272 -13.3283 6
    endloop
  endfacet
  facet normal 0 0 1
    outer loop
      vertex 8.4 -14.5492 6
      vertex 6.58215 -15.8907 6
      vertex 8.6 -14.8956 6
    endloop
  endfacet
  facet normal -0 0 1
    outer loop
      vertex 6.42908 -15.5212 6
      vertex 6.58215 -15.8907 6
      vertex 8.4 -14.5492 6
    endloop
  endfacet
  facet normal 0 0 1
    outer loop
      vertex 6.42908 -15.5212 6
      vertex 4.45169 -16.6139 6
      vertex 6.58215 -15.8907 6
    endloop
  endfacet
  facet normal -0 0 1
    outer loop
      vertex 4.34816 -16.2276 6
      vertex 4.45169 -16.6139 6
      vertex 6.42908 -15.5212 6
    endloop
  endfacet
  facet normal -0 0 1
    outer loop
      vertex 3 -16.4957 6
      vertex 4.45169 -16.6139 6
      vertex 4.34816 -16.2276 6
    endloop
  endfacet
  facet normal 0 0 1
    outer loop
      vertex 4.45169 -16.6139 6
      vertex 3 -16.4957 6
      vertex 3 -16.9027 6
    endloop
  endfacet
  facet normal 0 0 1
    outer loop
      vertex -4.45169 -16.6139 6
      vertex -3 -16.4957 6
      vertex -4.34816 -16.2276 6
    endloop
  endfacet
  facet normal 0 0 1
    outer loop
      vertex -3 -16.4957 6
      vertex -4.45169 -16.6139 6
      vertex -3 -16.9027 6
    endloop
  endfacet
  facet normal 0 0 1
    outer loop
      vertex -6.42908 -15.5212 6
      vertex -4.45169 -16.6139 6
      vertex -4.34816 -16.2276 6
    endloop
  endfacet
  facet normal 0 0 1
    outer loop
      vertex -6.42908 -15.5212 6
      vertex -6.58215 -15.8907 6
      vertex -4.45169 -16.6139 6
    endloop
  endfacet
  facet normal 0 0 1
    outer loop
      vertex -8.4 -14.5492 6
      vertex -6.58215 -15.8907 6
      vertex -6.42908 -15.5212 6
    endloop
  endfacet
  facet normal 0 0 1
    outer loop
      vertex -8.4 -14.5492 6
      vertex -8.6 -14.8956 6
      vertex -6.58215 -15.8907 6
    endloop
  endfacet
  facet normal 0 0 1
    outer loop
      vertex -10.2272 -13.3283 6
      vertex -8.6 -14.8956 6
      vertex -8.4 -14.5492 6
    endloop
  endfacet
  facet normal 0 0 1
    outer loop
      vertex -10.2272 -13.3283 6
      vertex -10.4707 -13.6457 6
      vertex -8.6 -14.8956 6
    endloop
  endfacet
  facet normal 0 0 1
    outer loop
      vertex -11.8794 -11.8794 6
      vertex -10.4707 -13.6457 6
      vertex -10.2272 -13.3283 6
    endloop
  endfacet
  facet normal 0 0 1
    outer loop
      vertex -11.8794 -11.8794 6
      vertex -12.1622 -12.1622 6
      vertex -10.4707 -13.6457 6
    endloop
  endfacet
  facet normal 0 0 1
    outer loop
      vertex -13.3283 -10.2272 6
      vertex -12.1622 -12.1622 6
      vertex -11.8794 -11.8794 6
    endloop
  endfacet
  facet normal 0 0 1
    outer loop
      vertex -13.3283 -10.2272 6
      vertex -13.6457 -10.4707 6
      vertex -12.1622 -12.1622 6
    endloop
  endfacet
  facet normal 0 0 1
    outer loop
      vertex -14.5492 -8.4 6
      vertex -13.6457 -10.4707 6
      vertex -13.3283 -10.2272 6
    endloop
  endfacet
  facet normal 0 0 1
    outer loop
      vertex -14.5492 -8.4 6
      vertex -14.8956 -8.6 6
      vertex -13.6457 -10.4707 6
    endloop
  endfacet
  facet normal 0 0 1
    outer loop
      vertex -15.5212 -6.42908 6
      vertex -14.8956 -8.6 6
      vertex -14.5492 -8.4 6
    endloop
  endfacet
  facet normal 0 0 1
    outer loop
      vertex -15.5212 -6.42908 6
      vertex -15.8907 -6.58215 6
      vertex -14.8956 -8.6 6
    endloop
  endfacet
  facet normal 0 0 1
    outer loop
      vertex -16.2276 -4.34816 6
      vertex -15.8907 -6.58215 6
      vertex -15.5212 -6.42908 6
    endloop
  endfacet
  facet normal 0 0 1
    outer loop
      vertex -16.2276 -4.34816 6
      vertex -16.6139 -4.45169 6
      vertex -15.8907 -6.58215 6
    endloop
  endfacet
  facet normal 0 0 1
    outer loop
      vertex -16.6563 -2.19284 6
      vertex -16.6139 -4.45169 6
      vertex -16.2276 -4.34816 6
    endloop
  endfacet
  facet normal 0 0 1
    outer loop
      vertex -17.0529 -2.24505 6
      vertex -16.6563 -2.19284 6
      vertex -16.8 0 6
    endloop
  endfacet
  facet normal 0 0 1
    outer loop
      vertex -17.2 0 6
      vertex -16.8 0 6
      vertex -17.0529 2.24505 6
    endloop
  endfacet
  facet normal 0 0 1
    outer loop
      vertex -16.6563 -2.19284 6
      vertex -17.0529 -2.24505 6
      vertex -16.6139 -4.45169 6
    endloop
  endfacet
  facet normal 0 0 1
    outer loop
      vertex -16.8 0 6
      vertex -17.2 0 6
      vertex -17.0529 -2.24505 6
    endloop
  endfacet
  facet normal 0.946929 -0.321442 0
    outer loop
      vertex 15.8907 -6.58215 6
      vertex 16.6139 -4.45169 1.5
      vertex 16.6139 -4.45169 6
    endloop
  endfacet
  facet normal 0.946929 -0.321442 0
    outer loop
      vertex 16.6139 -4.45169 1.5
      vertex 15.8907 -6.58215 6
      vertex 15.8907 -6.58215 1.5
    endloop
  endfacet
  facet normal -0.831482 0.555551 0
    outer loop
      vertex -14.8956 8.6 1.5
      vertex -13.6457 10.4707 6
      vertex -13.6457 10.4707 1.5
    endloop
  endfacet
  facet normal -0.831482 0.555551 0
    outer loop
      vertex -13.6457 10.4707 6
      vertex -14.8956 8.6 1.5
      vertex -14.8956 8.6 6
    endloop
  endfacet
  facet normal -0.442291 0.896872 0
    outer loop
      vertex -6.58215 15.8907 1.5
      vertex -8.6 14.8956 6
      vertex -6.58215 15.8907 6
    endloop
  endfacet
  facet normal -0.442291 0.896872 0
    outer loop
      vertex -8.6 14.8956 6
      vertex -6.58215 15.8907 1.5
      vertex -8.6 14.8956 1.5
    endloop
  endfacet
  facet normal -0.555551 0.831482 0
    outer loop
      vertex -8.6 14.8956 1.5
      vertex -10.4707 13.6457 6
      vertex -8.6 14.8956 6
    endloop
  endfacet
  facet normal -0.555551 0.831482 0
    outer loop
      vertex -10.4707 13.6457 6
      vertex -8.6 14.8956 1.5
      vertex -10.4707 13.6457 1.5
    endloop
  endfacet
  facet normal -0.946929 -0.321442 0
    outer loop
      vertex -15.8907 -6.58215 1.5
      vertex -16.6139 -4.45169 6
      vertex -16.6139 -4.45169 1.5
    endloop
  endfacet
  facet normal -0.946929 -0.321442 0
    outer loop
      vertex -16.6139 -4.45169 6
      vertex -15.8907 -6.58215 1.5
      vertex -15.8907 -6.58215 6
    endloop
  endfacet
  facet normal 0.321442 -0.946929 0
    outer loop
      vertex 4.45169 -16.6139 1.5
      vertex 6.58215 -15.8907 6
      vertex 4.45169 -16.6139 6
    endloop
  endfacet
  facet normal 0.321442 -0.946929 0
    outer loop
      vertex 6.58215 -15.8907 6
      vertex 4.45169 -16.6139 1.5
      vertex 6.58215 -15.8907 1.5
    endloop
  endfacet
  facet normal -0.321442 0.946929 0
    outer loop
      vertex -4.45169 16.6139 1.5
      vertex -6.58215 15.8907 6
      vertex -4.45169 16.6139 6
    endloop
  endfacet
  facet normal -0.321442 0.946929 0
    outer loop
      vertex -6.58215 15.8907 6
      vertex -4.45169 16.6139 1.5
      vertex -6.58215 15.8907 1.5
    endloop
  endfacet
  facet normal 0.946929 0.321442 0
    outer loop
      vertex 16.6139 4.45169 6
      vertex 15.8907 6.58215 1.5
      vertex 15.8907 6.58215 6
    endloop
  endfacet
  facet normal 0.946929 0.321442 0
    outer loop
      vertex 15.8907 6.58215 1.5
      vertex 16.6139 4.45169 6
      vertex 16.6139 4.45169 1.5
    endloop
  endfacet
  facet normal -0.442291 -0.896872 0
    outer loop
      vertex -8.6 -14.8956 1.5
      vertex -6.58215 -15.8907 6
      vertex -8.6 -14.8956 6
    endloop
  endfacet
  facet normal -0.442291 -0.896872 -0
    outer loop
      vertex -6.58215 -15.8907 6
      vertex -8.6 -14.8956 1.5
      vertex -6.58215 -15.8907 1.5
    endloop
  endfacet
  facet normal -0.99786 0.0653817 0
    outer loop
      vertex -17.2 0 1.5
      vertex -17.0529 2.24505 6
      vertex -17.0529 2.24505 1.5
    endloop
  endfacet
  facet normal -0.99786 0.0653817 0
    outer loop
      vertex -17.0529 2.24505 6
      vertex -17.2 0 1.5
      vertex -17.2 0 6
    endloop
  endfacet
  facet normal -0.946929 0.321442 0
    outer loop
      vertex -16.6139 4.45169 1.5
      vertex -15.8907 6.58215 6
      vertex -15.8907 6.58215 1.5
    endloop
  endfacet
  facet normal -0.946929 0.321442 0
    outer loop
      vertex -15.8907 6.58215 6
      vertex -16.6139 4.45169 1.5
      vertex -16.6139 4.45169 6
    endloop
  endfacet
  facet normal 0.65937 -0.751819 0
    outer loop
      vertex 10.4707 -13.6457 1.5
      vertex 12.1622 -12.1622 6
      vertex 10.4707 -13.6457 6
    endloop
  endfacet
  facet normal 0.65937 -0.751819 0
    outer loop
      vertex 12.1622 -12.1622 6
      vertex 10.4707 -13.6457 1.5
      vertex 12.1622 -12.1622 1.5
    endloop
  endfacet
  facet normal 0.831482 0.555551 0
    outer loop
      vertex 14.8956 8.6 6
      vertex 13.6457 10.4707 1.5
      vertex 13.6457 10.4707 6
    endloop
  endfacet
  facet normal 0.831482 0.555551 0
    outer loop
      vertex 13.6457 10.4707 1.5
      vertex 14.8956 8.6 6
      vertex 14.8956 8.6 1.5
    endloop
  endfacet
  facet normal 0.65937 0.751819 -0
    outer loop
      vertex 12.1622 12.1622 1.5
      vertex 10.4707 13.6457 6
      vertex 12.1622 12.1622 6
    endloop
  endfacet
  facet normal 0.65937 0.751819 0
    outer loop
      vertex 10.4707 13.6457 6
      vertex 12.1622 12.1622 1.5
      vertex 10.4707 13.6457 1.5
    endloop
  endfacet
  facet normal 0.99786 -0.0653817 0
    outer loop
      vertex 17.0529 -2.24505 6
      vertex 17.2 0 1.5
      vertex 17.2 0 6
    endloop
  endfacet
  facet normal 0.99786 -0.0653817 0
    outer loop
      vertex 17.2 0 1.5
      vertex 17.0529 -2.24505 6
      vertex 17.0529 -2.24505 1.5
    endloop
  endfacet
  facet normal 0.442291 0.896872 -0
    outer loop
      vertex 8.6 14.8956 1.5
      vertex 6.58215 15.8907 6
      vertex 8.6 14.8956 6
    endloop
  endfacet
  facet normal 0.442291 0.896872 0
    outer loop
      vertex 6.58215 15.8907 6
      vertex 8.6 14.8956 1.5
      vertex 6.58215 15.8907 1.5
    endloop
  endfacet
  facet normal 0.751819 0.65937 0
    outer loop
      vertex 13.6457 10.4707 6
      vertex 12.1622 12.1622 1.5
      vertex 12.1622 12.1622 6
    endloop
  endfacet
  facet normal 0.751819 0.65937 0
    outer loop
      vertex 12.1622 12.1622 1.5
      vertex 13.6457 10.4707 6
      vertex 13.6457 10.4707 1.5
    endloop
  endfacet
  facet normal 0.751819 -0.65937 0
    outer loop
      vertex 12.1622 -12.1622 6
      vertex 13.6457 -10.4707 1.5
      vertex 13.6457 -10.4707 6
    endloop
  endfacet
  facet normal 0.751819 -0.65937 0
    outer loop
      vertex 13.6457 -10.4707 1.5
      vertex 12.1622 -12.1622 6
      vertex 12.1622 -12.1622 1.5
    endloop
  endfacet
  facet normal -0.0653817 0.99786 0
    outer loop
      vertex 0 17.2 1.5
      vertex -2.24505 17.0529 6
      vertex 0 17.2 6
    endloop
  endfacet
  facet normal -0.0653817 0.99786 0
    outer loop
      vertex -2.24505 17.0529 6
      vertex 0 17.2 1.5
      vertex -2.24505 17.0529 1.5
    endloop
  endfacet
  facet normal -0.831482 -0.555551 0
    outer loop
      vertex -13.6457 -10.4707 1.5
      vertex -14.8956 -8.6 6
      vertex -14.8956 -8.6 1.5
    endloop
  endfacet
  facet normal -0.831482 -0.555551 0
    outer loop
      vertex -14.8956 -8.6 6
      vertex -13.6457 -10.4707 1.5
      vertex -13.6457 -10.4707 6
    endloop
  endfacet
  facet normal 0.195121 0.980779 -0
    outer loop
      vertex 4.45169 16.6139 1.5
      vertex 2.24505 17.0529 6
      vertex 4.45169 16.6139 6
    endloop
  endfacet
  facet normal 0.195121 0.980779 0
    outer loop
      vertex 2.24505 17.0529 6
      vertex 4.45169 16.6139 1.5
      vertex 2.24505 17.0529 1.5
    endloop
  endfacet
  facet normal 0.195117 -0.98078 0
    outer loop
      vertex 3 -16.9027 1.5
      vertex 4.45169 -16.6139 6
      vertex 3 -16.9027 6
    endloop
  endfacet
  facet normal 0.195117 -0.98078 0
    outer loop
      vertex 4.45169 -16.6139 6
      vertex 3 -16.9027 1.5
      vertex 4.45169 -16.6139 1.5
    endloop
  endfacet
  facet normal -0.751819 0.65937 0
    outer loop
      vertex -13.6457 10.4707 1.5
      vertex -12.1622 12.1622 6
      vertex -12.1622 12.1622 1.5
    endloop
  endfacet
  facet normal -0.751819 0.65937 0
    outer loop
      vertex -12.1622 12.1622 6
      vertex -13.6457 10.4707 1.5
      vertex -13.6457 10.4707 6
    endloop
  endfacet
  facet normal 0.896872 -0.442291 0
    outer loop
      vertex 14.8956 -8.6 6
      vertex 15.8907 -6.58215 1.5
      vertex 15.8907 -6.58215 6
    endloop
  endfacet
  facet normal 0.896872 -0.442291 0
    outer loop
      vertex 15.8907 -6.58215 1.5
      vertex 14.8956 -8.6 6
      vertex 14.8956 -8.6 1.5
    endloop
  endfacet
  facet normal -0.896872 -0.442291 0
    outer loop
      vertex -14.8956 -8.6 1.5
      vertex -15.8907 -6.58215 6
      vertex -15.8907 -6.58215 1.5
    endloop
  endfacet
  facet normal -0.896872 -0.442291 0
    outer loop
      vertex -15.8907 -6.58215 6
      vertex -14.8956 -8.6 1.5
      vertex -14.8956 -8.6 6
    endloop
  endfacet
  facet normal 0.555551 0.831482 -0
    outer loop
      vertex 10.4707 13.6457 1.5
      vertex 8.6 14.8956 6
      vertex 10.4707 13.6457 6
    endloop
  endfacet
  facet normal 0.555551 0.831482 0
    outer loop
      vertex 8.6 14.8956 6
      vertex 10.4707 13.6457 1.5
      vertex 8.6 14.8956 1.5
    endloop
  endfacet
  facet normal 0.831482 -0.555551 0
    outer loop
      vertex 13.6457 -10.4707 6
      vertex 14.8956 -8.6 1.5
      vertex 14.8956 -8.6 6
    endloop
  endfacet
  facet normal 0.831482 -0.555551 0
    outer loop
      vertex 14.8956 -8.6 1.5
      vertex 13.6457 -10.4707 6
      vertex 13.6457 -10.4707 1.5
    endloop
  endfacet
  facet normal 0 0 -1
    outer loop
      vertex -3 -18.4797 0
      vertex -4.85286 -18.1111 0
      vertex -3 -15.5 0
    endloop
  endfacet
  facet normal 0 0 -1
    outer loop
      vertex 3 -15.5 0
      vertex 18.75 0 0
      vertex 18.5896 -2.44737 0
    endloop
  endfacet
  facet normal 0 0 -1
    outer loop
      vertex 3 -15.5 0
      vertex 18.5896 -2.44737 0
      vertex 18.1111 -4.85286 0
    endloop
  endfacet
  facet normal -0 0 -1
    outer loop
      vertex 18.75 0 0
      vertex 3 -15.5 0
      vertex 18.5896 2.44737 0
    endloop
  endfacet
  facet normal 0 0 -1
    outer loop
      vertex 3 -15.5 0
      vertex 18.1111 -4.85286 0
      vertex 17.3227 -7.17531 0
    endloop
  endfacet
  facet normal -0 0 -1
    outer loop
      vertex 18.5896 2.44737 0
      vertex 3 -15.5 0
      vertex 18.1111 4.85286 0
    endloop
  endfacet
  facet normal 0 0 -1
    outer loop
      vertex 3 -15.5 0
      vertex 17.3227 -7.17531 0
      vertex 16.238 -9.375 0
    endloop
  endfacet
  facet normal -0 0 -1
    outer loop
      vertex 18.1111 4.85286 0
      vertex 3 -15.5 0
      vertex 17.3227 7.17531 0
    endloop
  endfacet
  facet normal 0 0 -1
    outer loop
      vertex 3 -15.5 0
      vertex 16.238 -9.375 0
      vertex 14.8754 -11.4143 0
    endloop
  endfacet
  facet normal -0 0 -1
    outer loop
      vertex 17.3227 7.17531 0
      vertex 3 -15.5 0
      vertex 16.238 9.375 0
    endloop
  endfacet
  facet normal 0 0 -1
    outer loop
      vertex 3 -15.5 0
      vertex 14.8754 -11.4143 0
      vertex 13.2583 -13.2583 0
    endloop
  endfacet
  facet normal -0 0 -1
    outer loop
      vertex 16.238 9.375 0
      vertex 3 -15.5 0
      vertex 14.8754 11.4143 0
    endloop
  endfacet
  facet normal 0 0 -1
    outer loop
      vertex 3 -15.5 0
      vertex 13.2583 -13.2583 0
      vertex 11.4143 -14.8754 0
    endloop
  endfacet
  facet normal -0 0 -1
    outer loop
      vertex 14.8754 11.4143 0
      vertex 3 -15.5 0
      vertex 13.2583 13.2583 0
    endloop
  endfacet
  facet normal 0 0 -1
    outer loop
      vertex 3 -15.5 0
      vertex 11.4143 -14.8754 0
      vertex 9.375 -16.238 0
    endloop
  endfacet
  facet normal -0 0 -1
    outer loop
      vertex 13.2583 13.2583 0
      vertex 3 -15.5 0
      vertex 11.4143 14.8754 0
    endloop
  endfacet
  facet normal 0 0 -1
    outer loop
      vertex 3 -15.5 0
      vertex 9.375 -16.238 0
      vertex 7.17531 -17.3227 0
    endloop
  endfacet
  facet normal -0 0 -1
    outer loop
      vertex 11.4143 14.8754 0
      vertex 3 -15.5 0
      vertex 9.375 16.238 0
    endloop
  endfacet
  facet normal 0 0 -1
    outer loop
      vertex 3 -15.5 0
      vertex 7.17531 -17.3227 0
      vertex 4.85286 -18.1111 0
    endloop
  endfacet
  facet normal -0 0 -1
    outer loop
      vertex 9.375 16.238 0
      vertex 3 -15.5 0
      vertex 7.17531 17.3227 0
    endloop
  endfacet
  facet normal 0 0 -1
    outer loop
      vertex 3 -15.5 0
      vertex 4.85286 -18.1111 0
      vertex 3 -18.4797 0
    endloop
  endfacet
  facet normal -0 0 -1
    outer loop
      vertex 7.17531 17.3227 0
      vertex 3 -15.5 0
      vertex 4.85286 18.1111 0
    endloop
  endfacet
  facet normal 0 0 -1
    outer loop
      vertex 3 -15.5 0
      vertex 2.44737 18.5896 0
      vertex 4.85286 18.1111 0
    endloop
  endfacet
  facet normal 0 0 -1
    outer loop
      vertex 3 -15.5 0
      vertex 0 18.75 0
      vertex 2.44737 18.5896 0
    endloop
  endfacet
  facet normal 0 0 -1
    outer loop
      vertex 3 -15.5 0
      vertex -2.44737 18.5896 0
      vertex 0 18.75 0
    endloop
  endfacet
  facet normal 0 0 -1
    outer loop
      vertex -3 -15.5 0
      vertex -2.44737 18.5896 0
      vertex 3 -15.5 0
    endloop
  endfacet
  facet normal 0 0 -1
    outer loop
      vertex -7.17531 -17.3227 0
      vertex -3 -15.5 0
      vertex -4.85286 -18.1111 0
    endloop
  endfacet
  facet normal 0 0 -1
    outer loop
      vertex -3 -15.5 0
      vertex -4.85286 18.1111 0
      vertex -2.44737 18.5896 0
    endloop
  endfacet
  facet normal 0 0 -1
    outer loop
      vertex -9.375 -16.238 0
      vertex -3 -15.5 0
      vertex -7.17531 -17.3227 0
    endloop
  endfacet
  facet normal 0 0 -1
    outer loop
      vertex -3 -15.5 0
      vertex -7.17531 17.3227 0
      vertex -4.85286 18.1111 0
    endloop
  endfacet
  facet normal 0 0 -1
    outer loop
      vertex -11.4143 -14.8754 0
      vertex -3 -15.5 0
      vertex -9.375 -16.238 0
    endloop
  endfacet
  facet normal 0 0 -1
    outer loop
      vertex -3 -15.5 0
      vertex -9.375 16.238 0
      vertex -7.17531 17.3227 0
    endloop
  endfacet
  facet normal 0 0 -1
    outer loop
      vertex -13.2583 -13.2583 0
      vertex -3 -15.5 0
      vertex -11.4143 -14.8754 0
    endloop
  endfacet
  facet normal 0 0 -1
    outer loop
      vertex -3 -15.5 0
      vertex -11.4143 14.8754 0
      vertex -9.375 16.238 0
    endloop
  endfacet
  facet normal 0 0 -1
    outer loop
      vertex -14.8754 -11.4143 0
      vertex -3 -15.5 0
      vertex -13.2583 -13.2583 0
    endloop
  endfacet
  facet normal 0 0 -1
    outer loop
      vertex -3 -15.5 0
      vertex -13.2583 13.2583 0
      vertex -11.4143 14.8754 0
    endloop
  endfacet
  facet normal 0 0 -1
    outer loop
      vertex -16.238 -9.375 0
      vertex -3 -15.5 0
      vertex -14.8754 -11.4143 0
    endloop
  endfacet
  facet normal 0 0 -1
    outer loop
      vertex -3 -15.5 0
      vertex -14.8754 11.4143 0
      vertex -13.2583 13.2583 0
    endloop
  endfacet
  facet normal 0 0 -1
    outer loop
      vertex -17.3227 -7.17531 0
      vertex -3 -15.5 0
      vertex -16.238 -9.375 0
    endloop
  endfacet
  facet normal 0 0 -1
    outer loop
      vertex -3 -15.5 0
      vertex -16.238 9.375 0
      vertex -14.8754 11.4143 0
    endloop
  endfacet
  facet normal 0 0 -1
    outer loop
      vertex -18.1111 -4.85286 0
      vertex -3 -15.5 0
      vertex -17.3227 -7.17531 0
    endloop
  endfacet
  facet normal 0 0 -1
    outer loop
      vertex -3 -15.5 0
      vertex -17.3227 7.17531 0
      vertex -16.238 9.375 0
    endloop
  endfacet
  facet normal 0 0 -1
    outer loop
      vertex -18.5896 -2.44737 0
      vertex -3 -15.5 0
      vertex -18.1111 -4.85286 0
    endloop
  endfacet
  facet normal 0 0 -1
    outer loop
      vertex -3 -15.5 0
      vertex -18.1111 4.85286 0
      vertex -17.3227 7.17531 0
    endloop
  endfacet
  facet normal 0 0 -1
    outer loop
      vertex -18.75 0 0
      vertex -3 -15.5 0
      vertex -18.5896 -2.44737 0
    endloop
  endfacet
  facet normal 0 0 -1
    outer loop
      vertex -3 -15.5 0
      vertex -18.5896 2.44737 0
      vertex -18.1111 4.85286 0
    endloop
  endfacet
  facet normal 0 0 -1
    outer loop
      vertex -3 -15.5 0
      vertex -18.75 0 0
      vertex -18.5896 2.44737 0
    endloop
  endfacet
  facet normal -0.751819 -0.65937 0
    outer loop
      vertex -12.1622 -12.1622 1.5
      vertex -13.6457 -10.4707 6
      vertex -13.6457 -10.4707 1.5
    endloop
  endfacet
  facet normal -0.751819 -0.65937 0
    outer loop
      vertex -13.6457 -10.4707 6
      vertex -12.1622 -12.1622 1.5
      vertex -12.1622 -12.1622 6
    endloop
  endfacet
  facet normal -0.65937 0.751819 0
    outer loop
      vertex -10.4707 13.6457 1.5
      vertex -12.1622 12.1622 6
      vertex -10.4707 13.6457 6
    endloop
  endfacet
  facet normal -0.65937 0.751819 0
    outer loop
      vertex -12.1622 12.1622 6
      vertex -10.4707 13.6457 1.5
      vertex -12.1622 12.1622 1.5
    endloop
  endfacet
  facet normal 0.896872 0.442291 0
    outer loop
      vertex 15.8907 6.58215 6
      vertex 14.8956 8.6 1.5
      vertex 14.8956 8.6 6
    endloop
  endfacet
  facet normal 0.896872 0.442291 0
    outer loop
      vertex 14.8956 8.6 1.5
      vertex 15.8907 6.58215 6
      vertex 15.8907 6.58215 1.5
    endloop
  endfacet
  facet normal 0.321442 0.946929 -0
    outer loop
      vertex 6.58215 15.8907 1.5
      vertex 4.45169 16.6139 6
      vertex 6.58215 15.8907 6
    endloop
  endfacet
  facet normal 0.321442 0.946929 0
    outer loop
      vertex 4.45169 16.6139 6
      vertex 6.58215 15.8907 1.5
      vertex 4.45169 16.6139 1.5
    endloop
  endfacet
  facet normal -0.980779 -0.195121 0
    outer loop
      vertex -16.6139 -4.45169 1.5
      vertex -17.0529 -2.24505 6
      vertex -17.0529 -2.24505 1.5
    endloop
  endfacet
  facet normal -0.980779 -0.195121 0
    outer loop
      vertex -17.0529 -2.24505 6
      vertex -16.6139 -4.45169 1.5
      vertex -16.6139 -4.45169 6
    endloop
  endfacet
  facet normal -0.980779 0.195121 0
    outer loop
      vertex -17.0529 2.24505 1.5
      vertex -16.6139 4.45169 6
      vertex -16.6139 4.45169 1.5
    endloop
  endfacet
  facet normal -0.980779 0.195121 0
    outer loop
      vertex -16.6139 4.45169 6
      vertex -17.0529 2.24505 1.5
      vertex -17.0529 2.24505 6
    endloop
  endfacet
  facet normal -0.65937 -0.751819 0
    outer loop
      vertex -12.1622 -12.1622 1.5
      vertex -10.4707 -13.6457 6
      vertex -12.1622 -12.1622 6
    endloop
  endfacet
  facet normal -0.65937 -0.751819 -0
    outer loop
      vertex -10.4707 -13.6457 6
      vertex -12.1622 -12.1622 1.5
      vertex -10.4707 -13.6457 1.5
    endloop
  endfacet
  facet normal -0.896872 0.442291 0
    outer loop
      vertex -15.8907 6.58215 1.5
      vertex -14.8956 8.6 6
      vertex -14.8956 8.6 1.5
    endloop
  endfacet
  facet normal -0.896872 0.442291 0
    outer loop
      vertex -14.8956 8.6 6
      vertex -15.8907 6.58215 1.5
      vertex -15.8907 6.58215 6
    endloop
  endfacet
  facet normal -0.321442 -0.946929 0
    outer loop
      vertex -6.58215 -15.8907 1.5
      vertex -4.45169 -16.6139 6
      vertex -6.58215 -15.8907 6
    endloop
  endfacet
  facet normal -0.321442 -0.946929 -0
    outer loop
      vertex -4.45169 -16.6139 6
      vertex -6.58215 -15.8907 1.5
      vertex -4.45169 -16.6139 1.5
    endloop
  endfacet
  facet normal -0.99786 -0.0653817 0
    outer loop
      vertex -17.0529 -2.24505 1.5
      vertex -17.2 0 6
      vertex -17.2 0 1.5
    endloop
  endfacet
  facet normal -0.99786 -0.0653817 0
    outer loop
      vertex -17.2 0 6
      vertex -17.0529 -2.24505 1.5
      vertex -17.0529 -2.24505 6
    endloop
  endfacet
  facet normal 0.0653817 0.99786 -0
    outer loop
      vertex 2.24505 17.0529 1.5
      vertex 0 17.2 6
      vertex 2.24505 17.0529 6
    endloop
  endfacet
  facet normal 0.0653817 0.99786 0
    outer loop
      vertex 0 17.2 6
      vertex 2.24505 17.0529 1.5
      vertex 0 17.2 1.5
    endloop
  endfacet
  facet normal -0.195117 -0.98078 0
    outer loop
      vertex -4.45169 -16.6139 1.5
      vertex -3 -16.9027 6
      vertex -4.45169 -16.6139 6
    endloop
  endfacet
  facet normal -0.195117 -0.98078 -0
    outer loop
      vertex -3 -16.9027 6
      vertex -4.45169 -16.6139 1.5
      vertex -3 -16.9027 1.5
    endloop
  endfacet
  facet normal -0.555551 -0.831482 0
    outer loop
      vertex -10.4707 -13.6457 1.5
      vertex -8.6 -14.8956 6
      vertex -10.4707 -13.6457 6
    endloop
  endfacet
  facet normal -0.555551 -0.831482 -0
    outer loop
      vertex -8.6 -14.8956 6
      vertex -10.4707 -13.6457 1.5
      vertex -8.6 -14.8956 1.5
    endloop
  endfacet
  facet normal -0.321452 0.946926 0
    outer loop
      vertex -4.85286 18.1111 0
      vertex -7.17531 17.3227 1.5
      vertex -4.85286 18.1111 1.5
    endloop
  endfacet
  facet normal -0.321452 0.946926 0
    outer loop
      vertex -7.17531 17.3227 1.5
      vertex -4.85286 18.1111 0
      vertex -7.17531 17.3227 0
    endloop
  endfacet
  facet normal 0.980784 0.195097 0
    outer loop
      vertex 18.5896 2.44737 1.5
      vertex 18.1111 4.85286 0
      vertex 18.1111 4.85286 1.5
    endloop
  endfacet
  facet normal 0.980784 0.195097 0
    outer loop
      vertex 18.1111 4.85286 0
      vertex 18.5896 2.44737 1.5
      vertex 18.5896 2.44737 0
    endloop
  endfacet
  facet normal 0.997859 0.0653994 0
    outer loop
      vertex 18.75 0 1.5
      vertex 18.5896 2.44737 0
      vertex 18.5896 2.44737 1.5
    endloop
  endfacet
  facet normal 0.997859 0.0653994 0
    outer loop
      vertex 18.5896 2.44737 0
      vertex 18.75 0 1.5
      vertex 18.75 0 0
    endloop
  endfacet
  facet normal -0.980784 0.195097 0
    outer loop
      vertex -18.5896 2.44737 0
      vertex -18.1111 4.85286 1.5
      vertex -18.1111 4.85286 0
    endloop
  endfacet
  facet normal -0.980784 0.195097 0
    outer loop
      vertex -18.1111 4.85286 1.5
      vertex -18.5896 2.44737 0
      vertex -18.5896 2.44737 1.5
    endloop
  endfacet
  facet normal 0.0653994 0.997859 -0
    outer loop
      vertex 2.44737 18.5896 0
      vertex 0 18.75 1.5
      vertex 2.44737 18.5896 1.5
    endloop
  endfacet
  facet normal 0.0653994 0.997859 0
    outer loop
      vertex 0 18.75 1.5
      vertex 2.44737 18.5896 0
      vertex 0 18.75 0
    endloop
  endfacet
  facet normal -0.896884 0.442267 0
    outer loop
      vertex -17.3227 7.17531 0
      vertex -16.238 9.375 1.5
      vertex -16.238 9.375 0
    endloop
  endfacet
  facet normal -0.896884 0.442267 0
    outer loop
      vertex -16.238 9.375 1.5
      vertex -17.3227 7.17531 0
      vertex -17.3227 7.17531 1.5
    endloop
  endfacet
  facet normal 0.831473 0.555566 0
    outer loop
      vertex 16.238 9.375 1.5
      vertex 14.8754 11.4143 0
      vertex 14.8754 11.4143 1.5
    endloop
  endfacet
  facet normal 0.831473 0.555566 0
    outer loop
      vertex 14.8754 11.4143 0
      vertex 16.238 9.375 1.5
      vertex 16.238 9.375 0
    endloop
  endfacet
  facet normal 0.659336 0.751849 -0
    outer loop
      vertex 13.2583 13.2583 0
      vertex 11.4143 14.8754 1.5
      vertex 13.2583 13.2583 1.5
    endloop
  endfacet
  facet normal 0.659336 0.751849 0
    outer loop
      vertex 11.4143 14.8754 1.5
      vertex 13.2583 13.2583 0
      vertex 11.4143 14.8754 0
    endloop
  endfacet
  facet normal -0.442267 -0.896884 0
    outer loop
      vertex -9.375 -16.238 0
      vertex -7.17531 -17.3227 1.5
      vertex -9.375 -16.238 1.5
    endloop
  endfacet
  facet normal -0.442267 -0.896884 -0
    outer loop
      vertex -7.17531 -17.3227 1.5
      vertex -9.375 -16.238 0
      vertex -7.17531 -17.3227 0
    endloop
  endfacet
  facet normal 0.997859 -0.0653994 0
    outer loop
      vertex 18.5896 -2.44737 1.5
      vertex 18.75 0 0
      vertex 18.75 0 1.5
    endloop
  endfacet
  facet normal 0.997859 -0.0653994 0
    outer loop
      vertex 18.75 0 0
      vertex 18.5896 -2.44737 1.5
      vertex 18.5896 -2.44737 0
    endloop
  endfacet
  facet normal 0.751849 0.659336 0
    outer loop
      vertex 14.8754 11.4143 1.5
      vertex 13.2583 13.2583 0
      vertex 13.2583 13.2583 1.5
    endloop
  endfacet
  facet normal 0.751849 0.659336 0
    outer loop
      vertex 13.2583 13.2583 0
      vertex 14.8754 11.4143 1.5
      vertex 14.8754 11.4143 0
    endloop
  endfacet
  facet normal -0.831473 -0.555566 0
    outer loop
      vertex -14.8754 -11.4143 0
      vertex -16.238 -9.375 1.5
      vertex -16.238 -9.375 0
    endloop
  endfacet
  facet normal -0.831473 -0.555566 0
    outer loop
      vertex -16.238 -9.375 1.5
      vertex -14.8754 -11.4143 0
      vertex -14.8754 -11.4143 1.5
    endloop
  endfacet
  facet normal 0.946926 0.321452 0
    outer loop
      vertex 18.1111 4.85286 1.5
      vertex 17.3227 7.17531 0
      vertex 17.3227 7.17531 1.5
    endloop
  endfacet
  facet normal 0.946926 0.321452 0
    outer loop
      vertex 17.3227 7.17531 0
      vertex 18.1111 4.85286 1.5
      vertex 18.1111 4.85286 0
    endloop
  endfacet
  facet normal 0.321452 -0.946926 0
    outer loop
      vertex 4.85286 -18.1111 0
      vertex 7.17531 -17.3227 1.5
      vertex 4.85286 -18.1111 1.5
    endloop
  endfacet
  facet normal 0.321452 -0.946926 0
    outer loop
      vertex 7.17531 -17.3227 1.5
      vertex 4.85286 -18.1111 0
      vertex 7.17531 -17.3227 0
    endloop
  endfacet
  facet normal 0.442267 -0.896884 0
    outer loop
      vertex 7.17531 -17.3227 0
      vertex 9.375 -16.238 1.5
      vertex 7.17531 -17.3227 1.5
    endloop
  endfacet
  facet normal 0.442267 -0.896884 0
    outer loop
      vertex 9.375 -16.238 1.5
      vertex 7.17531 -17.3227 0
      vertex 9.375 -16.238 0
    endloop
  endfacet
  facet normal -0.751849 0.659336 0
    outer loop
      vertex -14.8754 11.4143 0
      vertex -13.2583 13.2583 1.5
      vertex -13.2583 13.2583 0
    endloop
  endfacet
  facet normal -0.751849 0.659336 0
    outer loop
      vertex -13.2583 13.2583 1.5
      vertex -14.8754 11.4143 0
      vertex -14.8754 11.4143 1.5
    endloop
  endfacet
  facet normal 0.442267 0.896884 -0
    outer loop
      vertex 9.375 16.238 0
      vertex 7.17531 17.3227 1.5
      vertex 9.375 16.238 1.5
    endloop
  endfacet
  facet normal 0.442267 0.896884 0
    outer loop
      vertex 7.17531 17.3227 1.5
      vertex 9.375 16.238 0
      vertex 7.17531 17.3227 0
    endloop
  endfacet
  facet normal -0.442267 0.896884 0
    outer loop
      vertex -7.17531 17.3227 0
      vertex -9.375 16.238 1.5
      vertex -7.17531 17.3227 1.5
    endloop
  endfacet
  facet normal -0.442267 0.896884 0
    outer loop
      vertex -9.375 16.238 1.5
      vertex -7.17531 17.3227 0
      vertex -9.375 16.238 0
    endloop
  endfacet
  facet normal 0.751849 -0.659336 0
    outer loop
      vertex 13.2583 -13.2583 1.5
      vertex 14.8754 -11.4143 0
      vertex 14.8754 -11.4143 1.5
    endloop
  endfacet
  facet normal 0.751849 -0.659336 0
    outer loop
      vertex 14.8754 -11.4143 0
      vertex 13.2583 -13.2583 1.5
      vertex 13.2583 -13.2583 0
    endloop
  endfacet
  facet normal -0.195112 -0.980781 0
    outer loop
      vertex -4.85286 -18.1111 0
      vertex -3 -18.4797 1.5
      vertex -4.85286 -18.1111 1.5
    endloop
  endfacet
  facet normal -0.195112 -0.980781 -0
    outer loop
      vertex -3 -18.4797 1.5
      vertex -4.85286 -18.1111 0
      vertex -3 -18.4797 0
    endloop
  endfacet
  facet normal 0.831473 -0.555566 0
    outer loop
      vertex 14.8754 -11.4143 1.5
      vertex 16.238 -9.375 0
      vertex 16.238 -9.375 1.5
    endloop
  endfacet
  facet normal 0.831473 -0.555566 0
    outer loop
      vertex 16.238 -9.375 0
      vertex 14.8754 -11.4143 1.5
      vertex 14.8754 -11.4143 0
    endloop
  endfacet
  facet normal -0.659336 -0.751849 0
    outer loop
      vertex -13.2583 -13.2583 0
      vertex -11.4143 -14.8754 1.5
      vertex -13.2583 -13.2583 1.5
    endloop
  endfacet
  facet normal -0.659336 -0.751849 -0
    outer loop
      vertex -11.4143 -14.8754 1.5
      vertex -13.2583 -13.2583 0
      vertex -11.4143 -14.8754 0
    endloop
  endfacet
  facet normal 0.195112 -0.980781 0
    outer loop
      vertex 3 -18.4797 0
      vertex 4.85286 -18.1111 1.5
      vertex 3 -18.4797 1.5
    endloop
  endfacet
  facet normal 0.195112 -0.980781 0
    outer loop
      vertex 4.85286 -18.1111 1.5
      vertex 3 -18.4797 0
      vertex 4.85286 -18.1111 0
    endloop
  endfacet
  facet normal 0.896884 -0.442267 0
    outer loop
      vertex 16.238 -9.375 1.5
      vertex 17.3227 -7.17531 0
      vertex 17.3227 -7.17531 1.5
    endloop
  endfacet
  facet normal 0.896884 -0.442267 0
    outer loop
      vertex 17.3227 -7.17531 0
      vertex 16.238 -9.375 1.5
      vertex 16.238 -9.375 0
    endloop
  endfacet
  facet normal -0.980784 -0.195097 0
    outer loop
      vertex -18.1111 -4.85286 0
      vertex -18.5896 -2.44737 1.5
      vertex -18.5896 -2.44737 0
    endloop
  endfacet
  facet normal -0.980784 -0.195097 0
    outer loop
      vertex -18.5896 -2.44737 1.5
      vertex -18.1111 -4.85286 0
      vertex -18.1111 -4.85286 1.5
    endloop
  endfacet
  facet normal 0.946926 -0.321452 0
    outer loop
      vertex 17.3227 -7.17531 1.5
      vertex 18.1111 -4.85286 0
      vertex 18.1111 -4.85286 1.5
    endloop
  endfacet
  facet normal 0.946926 -0.321452 0
    outer loop
      vertex 18.1111 -4.85286 0
      vertex 17.3227 -7.17531 1.5
      vertex 17.3227 -7.17531 0
    endloop
  endfacet
  facet normal -0.946926 0.321452 0
    outer loop
      vertex -18.1111 4.85286 0
      vertex -17.3227 7.17531 1.5
      vertex -17.3227 7.17531 0
    endloop
  endfacet
  facet normal -0.946926 0.321452 0
    outer loop
      vertex -17.3227 7.17531 1.5
      vertex -18.1111 4.85286 0
      vertex -18.1111 4.85286 1.5
    endloop
  endfacet
  facet normal -0.0653994 0.997859 0
    outer loop
      vertex 0 18.75 0
      vertex -2.44737 18.5896 1.5
      vertex 0 18.75 1.5
    endloop
  endfacet
  facet normal -0.0653994 0.997859 0
    outer loop
      vertex -2.44737 18.5896 1.5
      vertex 0 18.75 0
      vertex -2.44737 18.5896 0
    endloop
  endfacet
  facet normal -0.896884 -0.442267 0
    outer loop
      vertex -16.238 -9.375 0
      vertex -17.3227 -7.17531 1.5
      vertex -17.3227 -7.17531 0
    endloop
  endfacet
  facet normal -0.896884 -0.442267 0
    outer loop
      vertex -17.3227 -7.17531 1.5
      vertex -16.238 -9.375 0
      vertex -16.238 -9.375 1.5
    endloop
  endfacet
  facet normal 0.555566 0.831473 -0
    outer loop
      vertex 11.4143 14.8754 0
      vertex 9.375 16.238 1.5
      vertex 11.4143 14.8754 1.5
    endloop
  endfacet
  facet normal 0.555566 0.831473 0
    outer loop
      vertex 9.375 16.238 1.5
      vertex 11.4143 14.8754 0
      vertex 9.375 16.238 0
    endloop
  endfacet
  facet normal -0.659336 0.751849 0
    outer loop
      vertex -11.4143 14.8754 0
      vertex -13.2583 13.2583 1.5
      vertex -11.4143 14.8754 1.5
    endloop
  endfacet
  facet normal -0.659336 0.751849 0
    outer loop
      vertex -13.2583 13.2583 1.5
      vertex -11.4143 14.8754 0
      vertex -13.2583 13.2583 0
    endloop
  endfacet
  facet normal -0.555566 0.831473 0
    outer loop
      vertex -9.375 16.238 0
      vertex -11.4143 14.8754 1.5
      vertex -9.375 16.238 1.5
    endloop
  endfacet
  facet normal -0.555566 0.831473 0
    outer loop
      vertex -11.4143 14.8754 1.5
      vertex -9.375 16.238 0
      vertex -11.4143 14.8754 0
    endloop
  endfacet
  facet normal 0.195097 0.980784 -0
    outer loop
      vertex 4.85286 18.1111 0
      vertex 2.44737 18.5896 1.5
      vertex 4.85286 18.1111 1.5
    endloop
  endfacet
  facet normal 0.195097 0.980784 0
    outer loop
      vertex 2.44737 18.5896 1.5
      vertex 4.85286 18.1111 0
      vertex 2.44737 18.5896 0
    endloop
  endfacet
  facet normal 0.980784 -0.195097 0
    outer loop
      vertex 18.1111 -4.85286 1.5
      vertex 18.5896 -2.44737 0
      vertex 18.5896 -2.44737 1.5
    endloop
  endfacet
  facet normal 0.980784 -0.195097 0
    outer loop
      vertex 18.5896 -2.44737 0
      vertex 18.1111 -4.85286 1.5
      vertex 18.1111 -4.85286 0
    endloop
  endfacet
  facet normal 0.659336 -0.751849 0
    outer loop
      vertex 11.4143 -14.8754 0
      vertex 13.2583 -13.2583 1.5
      vertex 11.4143 -14.8754 1.5
    endloop
  endfacet
  facet normal 0.659336 -0.751849 0
    outer loop
      vertex 13.2583 -13.2583 1.5
      vertex 11.4143 -14.8754 0
      vertex 13.2583 -13.2583 0
    endloop
  endfacet
  facet normal -0.997859 -0.0653994 0
    outer loop
      vertex -18.5896 -2.44737 0
      vertex -18.75 0 1.5
      vertex -18.75 0 0
    endloop
  endfacet
  facet normal -0.997859 -0.0653994 0
    outer loop
      vertex -18.75 0 1.5
      vertex -18.5896 -2.44737 0
      vertex -18.5896 -2.44737 1.5
    endloop
  endfacet
  facet normal 0.896884 0.442267 0
    outer loop
      vertex 17.3227 7.17531 1.5
      vertex 16.238 9.375 0
      vertex 16.238 9.375 1.5
    endloop
  endfacet
  facet normal 0.896884 0.442267 0
    outer loop
      vertex 16.238 9.375 0
      vertex 17.3227 7.17531 1.5
      vertex 17.3227 7.17531 0
    endloop
  endfacet
  facet normal 0.555566 -0.831473 0
    outer loop
      vertex 9.375 -16.238 0
      vertex 11.4143 -14.8754 1.5
      vertex 9.375 -16.238 1.5
    endloop
  endfacet
  facet normal 0.555566 -0.831473 0
    outer loop
      vertex 11.4143 -14.8754 1.5
      vertex 9.375 -16.238 0
      vertex 11.4143 -14.8754 0
    endloop
  endfacet
  facet normal -0.195097 0.980784 0
    outer loop
      vertex -2.44737 18.5896 0
      vertex -4.85286 18.1111 1.5
      vertex -2.44737 18.5896 1.5
    endloop
  endfacet
  facet normal -0.195097 0.980784 0
    outer loop
      vertex -4.85286 18.1111 1.5
      vertex -2.44737 18.5896 0
      vertex -4.85286 18.1111 0
    endloop
  endfacet
  facet normal -0.997859 0.0653994 0
    outer loop
      vertex -18.75 0 0
      vertex -18.5896 2.44737 1.5
      vertex -18.5896 2.44737 0
    endloop
  endfacet
  facet normal -0.997859 0.0653994 0
    outer loop
      vertex -18.5896 2.44737 1.5
      vertex -18.75 0 0
      vertex -18.75 0 1.5
    endloop
  endfacet
  facet normal -0.321452 -0.946926 0
    outer loop
      vertex -7.17531 -17.3227 0
      vertex -4.85286 -18.1111 1.5
      vertex -7.17531 -17.3227 1.5
    endloop
  endfacet
  facet normal -0.321452 -0.946926 -0
    outer loop
      vertex -4.85286 -18.1111 1.5
      vertex -7.17531 -17.3227 0
      vertex -4.85286 -18.1111 0
    endloop
  endfacet
  facet normal -0.946926 -0.321452 0
    outer loop
      vertex -17.3227 -7.17531 0
      vertex -18.1111 -4.85286 1.5
      vertex -18.1111 -4.85286 0
    endloop
  endfacet
  facet normal -0.946926 -0.321452 0
    outer loop
      vertex -18.1111 -4.85286 1.5
      vertex -17.3227 -7.17531 0
      vertex -17.3227 -7.17531 1.5
    endloop
  endfacet
  facet normal -0.751849 -0.659336 0
    outer loop
      vertex -13.2583 -13.2583 0
      vertex -14.8754 -11.4143 1.5
      vertex -14.8754 -11.4143 0
    endloop
  endfacet
  facet normal -0.751849 -0.659336 0
    outer loop
      vertex -14.8754 -11.4143 1.5
      vertex -13.2583 -13.2583 0
      vertex -13.2583 -13.2583 1.5
    endloop
  endfacet
  facet normal 0 0 1
    outer loop
      vertex 17.2 0 1.5
      vertex 18.75 0 1.5
      vertex 18.5896 2.44737 1.5
    endloop
  endfacet
  facet normal 0 0 1
    outer loop
      vertex 17.0529 2.24505 1.5
      vertex 18.5896 2.44737 1.5
      vertex 18.1111 4.85286 1.5
    endloop
  endfacet
  facet normal 0 0 1
    outer loop
      vertex 18.75 0 1.5
      vertex 17.2 0 1.5
      vertex 18.5896 -2.44737 1.5
    endloop
  endfacet
  facet normal 0 0 1
    outer loop
      vertex 16.6139 4.45169 1.5
      vertex 18.1111 4.85286 1.5
      vertex 17.3227 7.17531 1.5
    endloop
  endfacet
  facet normal -0 0 1
    outer loop
      vertex 17.0529 -2.24505 1.5
      vertex 18.5896 -2.44737 1.5
      vertex 17.2 0 1.5
    endloop
  endfacet
  facet normal 0 0 1
    outer loop
      vertex 18.5896 -2.44737 1.5
      vertex 17.0529 -2.24505 1.5
      vertex 18.1111 -4.85286 1.5
    endloop
  endfacet
  facet normal 0 0 1
    outer loop
      vertex 18.5896 2.44737 1.5
      vertex 17.0529 2.24505 1.5
      vertex 17.2 0 1.5
    endloop
  endfacet
  facet normal 0 0 1
    outer loop
      vertex 18.1111 4.85286 1.5
      vertex 16.6139 4.45169 1.5
      vertex 17.0529 2.24505 1.5
    endloop
  endfacet
  facet normal 0 0 1
    outer loop
      vertex 15.8907 6.58215 1.5
      vertex 17.3227 7.17531 1.5
      vertex 16.238 9.375 1.5
    endloop
  endfacet
  facet normal 0 0 1
    outer loop
      vertex 17.3227 7.17531 1.5
      vertex 15.8907 6.58215 1.5
      vertex 16.6139 4.45169 1.5
    endloop
  endfacet
  facet normal 0 0 1
    outer loop
      vertex 16.238 9.375 1.5
      vertex 14.8956 8.6 1.5
      vertex 15.8907 6.58215 1.5
    endloop
  endfacet
  facet normal 0 0 1
    outer loop
      vertex 14.8754 11.4143 1.5
      vertex 14.8956 8.6 1.5
      vertex 16.238 9.375 1.5
    endloop
  endfacet
  facet normal 0 0 1
    outer loop
      vertex 14.8754 11.4143 1.5
      vertex 13.6457 10.4707 1.5
      vertex 14.8956 8.6 1.5
    endloop
  endfacet
  facet normal 0 0 1
    outer loop
      vertex 13.2583 13.2583 1.5
      vertex 13.6457 10.4707 1.5
      vertex 14.8754 11.4143 1.5
    endloop
  endfacet
  facet normal 0 0 1
    outer loop
      vertex 13.2583 13.2583 1.5
      vertex 12.1622 12.1622 1.5
      vertex 13.6457 10.4707 1.5
    endloop
  endfacet
  facet normal 0 0 1
    outer loop
      vertex 11.4143 14.8754 1.5
      vertex 12.1622 12.1622 1.5
      vertex 13.2583 13.2583 1.5
    endloop
  endfacet
  facet normal 0 0 1
    outer loop
      vertex 11.4143 14.8754 1.5
      vertex 10.4707 13.6457 1.5
      vertex 12.1622 12.1622 1.5
    endloop
  endfacet
  facet normal 0 0 1
    outer loop
      vertex 9.375 16.238 1.5
      vertex 10.4707 13.6457 1.5
      vertex 11.4143 14.8754 1.5
    endloop
  endfacet
  facet normal 0 0 1
    outer loop
      vertex 9.375 16.238 1.5
      vertex 8.6 14.8956 1.5
      vertex 10.4707 13.6457 1.5
    endloop
  endfacet
  facet normal 0 0 1
    outer loop
      vertex 7.17531 17.3227 1.5
      vertex 8.6 14.8956 1.5
      vertex 9.375 16.238 1.5
    endloop
  endfacet
  facet normal 0 0 1
    outer loop
      vertex 7.17531 17.3227 1.5
      vertex 6.58215 15.8907 1.5
      vertex 8.6 14.8956 1.5
    endloop
  endfacet
  facet normal 0 0 1
    outer loop
      vertex 4.85286 18.1111 1.5
      vertex 6.58215 15.8907 1.5
      vertex 7.17531 17.3227 1.5
    endloop
  endfacet
  facet normal 0 0 1
    outer loop
      vertex 4.85286 18.1111 1.5
      vertex 4.45169 16.6139 1.5
      vertex 6.58215 15.8907 1.5
    endloop
  endfacet
  facet normal 0 0 1
    outer loop
      vertex 2.44737 18.5896 1.5
      vertex 4.45169 16.6139 1.5
      vertex 4.85286 18.1111 1.5
    endloop
  endfacet
  facet normal 0 0 1
    outer loop
      vertex 2.44737 18.5896 1.5
      vertex 2.24505 17.0529 1.5
      vertex 4.45169 16.6139 1.5
    endloop
  endfacet
  facet normal 0 0 1
    outer loop
      vertex 0 18.75 1.5
      vertex 2.24505 17.0529 1.5
      vertex 2.44737 18.5896 1.5
    endloop
  endfacet
  facet normal 0 0 1
    outer loop
      vertex 0 18.75 1.5
      vertex 0 17.2 1.5
      vertex 2.24505 17.0529 1.5
    endloop
  endfacet
  facet normal 0 0 1
    outer loop
      vertex 0 18.75 1.5
      vertex -2.24505 17.0529 1.5
      vertex 0 17.2 1.5
    endloop
  endfacet
  facet normal -0 0 1
    outer loop
      vertex -2.44737 18.5896 1.5
      vertex -2.24505 17.0529 1.5
      vertex 0 18.75 1.5
    endloop
  endfacet
  facet normal 0 0 1
    outer loop
      vertex -2.44737 18.5896 1.5
      vertex -4.45169 16.6139 1.5
      vertex -2.24505 17.0529 1.5
    endloop
  endfacet
  facet normal -0 0 1
    outer loop
      vertex -4.85286 18.1111 1.5
      vertex -4.45169 16.6139 1.5
      vertex -2.44737 18.5896 1.5
    endloop
  endfacet
  facet normal 0 0 1
    outer loop
      vertex -4.85286 18.1111 1.5
      vertex -6.58215 15.8907 1.5
      vertex -4.45169 16.6139 1.5
    endloop
  endfacet
  facet normal -0 0 1
    outer loop
      vertex -7.17531 17.3227 1.5
      vertex -6.58215 15.8907 1.5
      vertex -4.85286 18.1111 1.5
    endloop
  endfacet
  facet normal 0 0 1
    outer loop
      vertex -7.17531 17.3227 1.5
      vertex -8.6 14.8956 1.5
      vertex -6.58215 15.8907 1.5
    endloop
  endfacet
  facet normal -0 0 1
    outer loop
      vertex -9.375 16.238 1.5
      vertex -8.6 14.8956 1.5
      vertex -7.17531 17.3227 1.5
    endloop
  endfacet
  facet normal 0 0 1
    outer loop
      vertex -9.375 16.238 1.5
      vertex -10.4707 13.6457 1.5
      vertex -8.6 14.8956 1.5
    endloop
  endfacet
  facet normal -0 0 1
    outer loop
      vertex -11.4143 14.8754 1.5
      vertex -10.4707 13.6457 1.5
      vertex -9.375 16.238 1.5
    endloop
  endfacet
  facet normal 0 0 1
    outer loop
      vertex -11.4143 14.8754 1.5
      vertex -12.1622 12.1622 1.5
      vertex -10.4707 13.6457 1.5
    endloop
  endfacet
  facet normal -0 0 1
    outer loop
      vertex -13.2583 13.2583 1.5
      vertex -12.1622 12.1622 1.5
      vertex -11.4143 14.8754 1.5
    endloop
  endfacet
  facet normal 0 0 1
    outer loop
      vertex -13.2583 13.2583 1.5
      vertex -13.6457 10.4707 1.5
      vertex -12.1622 12.1622 1.5
    endloop
  endfacet
  facet normal -0 0 1
    outer loop
      vertex -14.8754 11.4143 1.5
      vertex -13.6457 10.4707 1.5
      vertex -13.2583 13.2583 1.5
    endloop
  endfacet
  facet normal 0 0 1
    outer loop
      vertex -14.8754 11.4143 1.5
      vertex -14.8956 8.6 1.5
      vertex -13.6457 10.4707 1.5
    endloop
  endfacet
  facet normal -0 0 1
    outer loop
      vertex -16.238 9.375 1.5
      vertex -14.8956 8.6 1.5
      vertex -14.8754 11.4143 1.5
    endloop
  endfacet
  facet normal 0 0 1
    outer loop
      vertex -14.8956 8.6 1.5
      vertex -16.238 9.375 1.5
      vertex -15.8907 6.58215 1.5
    endloop
  endfacet
  facet normal -0 0 1
    outer loop
      vertex -17.3227 7.17531 1.5
      vertex -15.8907 6.58215 1.5
      vertex -16.238 9.375 1.5
    endloop
  endfacet
  facet normal 0 0 1
    outer loop
      vertex -15.8907 6.58215 1.5
      vertex -17.3227 7.17531 1.5
      vertex -16.6139 4.45169 1.5
    endloop
  endfacet
  facet normal 0 0 1
    outer loop
      vertex -16.6139 4.45169 1.5
      vertex -18.1111 4.85286 1.5
      vertex -17.0529 2.24505 1.5
    endloop
  endfacet
  facet normal -0 0 1
    outer loop
      vertex -18.1111 4.85286 1.5
      vertex -16.6139 4.45169 1.5
      vertex -17.3227 7.17531 1.5
    endloop
  endfacet
  facet normal -0 0 1
    outer loop
      vertex 16.6139 -4.45169 1.5
      vertex 18.1111 -4.85286 1.5
      vertex 17.0529 -2.24505 1.5
    endloop
  endfacet
  facet normal 0 0 1
    outer loop
      vertex 18.1111 -4.85286 1.5
      vertex 16.6139 -4.45169 1.5
      vertex 17.3227 -7.17531 1.5
    endloop
  endfacet
  facet normal -0 0 1
    outer loop
      vertex 15.8907 -6.58215 1.5
      vertex 17.3227 -7.17531 1.5
      vertex 16.6139 -4.45169 1.5
    endloop
  endfacet
  facet normal 0 0 1
    outer loop
      vertex 17.3227 -7.17531 1.5
      vertex 15.8907 -6.58215 1.5
      vertex 16.238 -9.375 1.5
    endloop
  endfacet
  facet normal -0 0 1
    outer loop
      vertex 14.8956 -8.6 1.5
      vertex 16.238 -9.375 1.5
      vertex 15.8907 -6.58215 1.5
    endloop
  endfacet
  facet normal 0 0 1
    outer loop
      vertex 14.8956 -8.6 1.5
      vertex 14.8754 -11.4143 1.5
      vertex 16.238 -9.375 1.5
    endloop
  endfacet
  facet normal -0 0 1
    outer loop
      vertex 13.6457 -10.4707 1.5
      vertex 14.8754 -11.4143 1.5
      vertex 14.8956 -8.6 1.5
    endloop
  endfacet
  facet normal 0 0 1
    outer loop
      vertex 13.6457 -10.4707 1.5
      vertex 13.2583 -13.2583 1.5
      vertex 14.8754 -11.4143 1.5
    endloop
  endfacet
  facet normal -0 0 1
    outer loop
      vertex 12.1622 -12.1622 1.5
      vertex 13.2583 -13.2583 1.5
      vertex 13.6457 -10.4707 1.5
    endloop
  endfacet
  facet normal 0 0 1
    outer loop
      vertex 12.1622 -12.1622 1.5
      vertex 11.4143 -14.8754 1.5
      vertex 13.2583 -13.2583 1.5
    endloop
  endfacet
  facet normal -0 0 1
    outer loop
      vertex 10.4707 -13.6457 1.5
      vertex 11.4143 -14.8754 1.5
      vertex 12.1622 -12.1622 1.5
    endloop
  endfacet
  facet normal 0 0 1
    outer loop
      vertex 10.4707 -13.6457 1.5
      vertex 9.375 -16.238 1.5
      vertex 11.4143 -14.8754 1.5
    endloop
  endfacet
  facet normal -0 0 1
    outer loop
      vertex 8.6 -14.8956 1.5
      vertex 9.375 -16.238 1.5
      vertex 10.4707 -13.6457 1.5
    endloop
  endfacet
  facet normal 0 0 1
    outer loop
      vertex 8.6 -14.8956 1.5
      vertex 7.17531 -17.3227 1.5
      vertex 9.375 -16.238 1.5
    endloop
  endfacet
  facet normal -0 0 1
    outer loop
      vertex 6.58215 -15.8907 1.5
      vertex 7.17531 -17.3227 1.5
      vertex 8.6 -14.8956 1.5
    endloop
  endfacet
  facet normal 0 0 1
    outer loop
      vertex 6.58215 -15.8907 1.5
      vertex 4.85286 -18.1111 1.5
      vertex 7.17531 -17.3227 1.5
    endloop
  endfacet
  facet normal -0 0 1
    outer loop
      vertex 4.45169 -16.6139 1.5
      vertex 4.85286 -18.1111 1.5
      vertex 6.58215 -15.8907 1.5
    endloop
  endfacet
  facet normal -0 0 1
    outer loop
      vertex 3 -16.9027 1.5
      vertex 4.85286 -18.1111 1.5
      vertex 4.45169 -16.6139 1.5
    endloop
  endfacet
  facet normal 0 0 1
    outer loop
      vertex 4.85286 -18.1111 1.5
      vertex 3 -16.9027 1.5
      vertex 3 -18.4797 1.5
    endloop
  endfacet
  facet normal 0 0 1
    outer loop
      vertex -4.85286 -18.1111 1.5
      vertex -3 -16.9027 1.5
      vertex -4.45169 -16.6139 1.5
    endloop
  endfacet
  facet normal 0 0 1
    outer loop
      vertex -3 -16.9027 1.5
      vertex -4.85286 -18.1111 1.5
      vertex -3 -18.4797 1.5
    endloop
  endfacet
  facet normal 0 0 1
    outer loop
      vertex -6.58215 -15.8907 1.5
      vertex -4.85286 -18.1111 1.5
      vertex -4.45169 -16.6139 1.5
    endloop
  endfacet
  facet normal 0 0 1
    outer loop
      vertex -6.58215 -15.8907 1.5
      vertex -7.17531 -17.3227 1.5
      vertex -4.85286 -18.1111 1.5
    endloop
  endfacet
  facet normal 0 0 1
    outer loop
      vertex -8.6 -14.8956 1.5
      vertex -7.17531 -17.3227 1.5
      vertex -6.58215 -15.8907 1.5
    endloop
  endfacet
  facet normal 0 0 1
    outer loop
      vertex -8.6 -14.8956 1.5
      vertex -9.375 -16.238 1.5
      vertex -7.17531 -17.3227 1.5
    endloop
  endfacet
  facet normal 0 0 1
    outer loop
      vertex -10.4707 -13.6457 1.5
      vertex -9.375 -16.238 1.5
      vertex -8.6 -14.8956 1.5
    endloop
  endfacet
  facet normal 0 0 1
    outer loop
      vertex -10.4707 -13.6457 1.5
      vertex -11.4143 -14.8754 1.5
      vertex -9.375 -16.238 1.5
    endloop
  endfacet
  facet normal 0 0 1
    outer loop
      vertex -12.1622 -12.1622 1.5
      vertex -11.4143 -14.8754 1.5
      vertex -10.4707 -13.6457 1.5
    endloop
  endfacet
  facet normal 0 0 1
    outer loop
      vertex -12.1622 -12.1622 1.5
      vertex -13.2583 -13.2583 1.5
      vertex -11.4143 -14.8754 1.5
    endloop
  endfacet
  facet normal 0 0 1
    outer loop
      vertex -13.6457 -10.4707 1.5
      vertex -13.2583 -13.2583 1.5
      vertex -12.1622 -12.1622 1.5
    endloop
  endfacet
  facet normal 0 0 1
    outer loop
      vertex -13.6457 -10.4707 1.5
      vertex -14.8754 -11.4143 1.5
      vertex -13.2583 -13.2583 1.5
    endloop
  endfacet
  facet normal 0 0 1
    outer loop
      vertex -14.8956 -8.6 1.5
      vertex -14.8754 -11.4143 1.5
      vertex -13.6457 -10.4707 1.5
    endloop
  endfacet
  facet normal 0 0 1
    outer loop
      vertex -16.238 -9.375 1.5
      vertex -14.8956 -8.6 1.5
      vertex -15.8907 -6.58215 1.5
    endloop
  endfacet
  facet normal 0 0 1
    outer loop
      vertex -14.8956 -8.6 1.5
      vertex -16.238 -9.375 1.5
      vertex -14.8754 -11.4143 1.5
    endloop
  endfacet
  facet normal 0 0 1
    outer loop
      vertex -17.3227 -7.17531 1.5
      vertex -15.8907 -6.58215 1.5
      vertex -16.6139 -4.45169 1.5
    endloop
  endfacet
  facet normal 0 0 1
    outer loop
      vertex -18.1111 -4.85286 1.5
      vertex -16.6139 -4.45169 1.5
      vertex -17.0529 -2.24505 1.5
    endloop
  endfacet
  facet normal 0 0 1
    outer loop
      vertex -15.8907 -6.58215 1.5
      vertex -17.3227 -7.17531 1.5
      vertex -16.238 -9.375 1.5
    endloop
  endfacet
  facet normal 0 0 1
    outer loop
      vertex -18.5896 -2.44737 1.5
      vertex -17.0529 -2.24505 1.5
      vertex -17.2 0 1.5
    endloop
  endfacet
  facet normal -0 0 1
    outer loop
      vertex -18.5896 2.44737 1.5
      vertex -17.0529 2.24505 1.5
      vertex -18.1111 4.85286 1.5
    endloop
  endfacet
  facet normal 0 0 1
    outer loop
      vertex -17.0529 2.24505 1.5
      vertex -18.5896 2.44737 1.5
      vertex -17.2 0 1.5
    endloop
  endfacet
  facet normal 0 0 1
    outer loop
      vertex -16.6139 -4.45169 1.5
      vertex -18.1111 -4.85286 1.5
      vertex -17.3227 -7.17531 1.5
    endloop
  endfacet
  facet normal 0 0 1
    outer loop
      vertex -18.75 0 1.5
      vertex -17.2 0 1.5
      vertex -18.5896 2.44737 1.5
    endloop
  endfacet
  facet normal 0 0 1
    outer loop
      vertex -17.0529 -2.24505 1.5
      vertex -18.5896 -2.44737 1.5
      vertex -18.1111 -4.85286 1.5
    endloop
  endfacet
  facet normal 0 0 1
    outer loop
      vertex -17.2 0 1.5
      vertex -18.75 0 1.5
      vertex -18.5896 -2.44737 1.5
    endloop
  endfacet
  facet normal -0.555566 -0.831473 0
    outer loop
      vertex -11.4143 -14.8754 0
      vertex -9.375 -16.238 1.5
      vertex -11.4143 -14.8754 1.5
    endloop
  endfacet
  facet normal -0.555566 -0.831473 -0
    outer loop
      vertex -9.375 -16.238 1.5
      vertex -11.4143 -14.8754 0
      vertex -9.375 -16.238 0
    endloop
  endfacet
  facet normal 0.321452 0.946926 -0
    outer loop
      vertex 7.17531 17.3227 0
      vertex 4.85286 18.1111 1.5
      vertex 7.17531 17.3227 1.5
    endloop
  endfacet
  facet normal 0.321452 0.946926 0
    outer loop
      vertex 4.85286 18.1111 1.5
      vertex 7.17531 17.3227 0
      vertex 4.85286 18.1111 0
    endloop
  endfacet
  facet normal -0.831473 0.555566 0
    outer loop
      vertex -16.238 9.375 0
      vertex -14.8754 11.4143 1.5
      vertex -14.8754 11.4143 0
    endloop
  endfacet
  facet normal -0.831473 0.555566 0
    outer loop
      vertex -14.8754 11.4143 1.5
      vertex -16.238 9.375 0
      vertex -16.238 9.375 1.5
    endloop
  endfacet
  facet normal -0.980787 0.195082 0
    outer loop
      vertex 16.2276 -4.34816 1.5
      vertex 16.6563 -2.19284 6
      vertex 16.6563 -2.19284 1.5
    endloop
  endfacet
  facet normal -0.980787 0.195082 0
    outer loop
      vertex 16.6563 -2.19284 6
      vertex 16.2276 -4.34816 1.5
      vertex 16.2276 -4.34816 6
    endloop
  endfacet
  facet normal -0.980787 -0.195082 0
    outer loop
      vertex 16.6563 2.19284 1.5
      vertex 16.2276 4.34816 6
      vertex 16.2276 4.34816 1.5
    endloop
  endfacet
  facet normal -0.980787 -0.195082 0
    outer loop
      vertex 16.2276 4.34816 6
      vertex 16.6563 2.19284 1.5
      vertex 16.6563 2.19284 6
    endloop
  endfacet
  facet normal -0.99786 -0.0653912 0
    outer loop
      vertex 16.8 0 1.5
      vertex 16.6563 2.19284 6
      vertex 16.6563 2.19284 1.5
    endloop
  endfacet
  facet normal -0.99786 -0.0653912 0
    outer loop
      vertex 16.6563 2.19284 6
      vertex 16.8 0 1.5
      vertex 16.8 0 6
    endloop
  endfacet
  facet normal 0.831469 0.555571 0
    outer loop
      vertex -13.3283 -10.2272 6
      vertex -14.5492 -8.4 1.5
      vertex -14.5492 -8.4 6
    endloop
  endfacet
  facet normal 0.831469 0.555571 0
    outer loop
      vertex -14.5492 -8.4 1.5
      vertex -13.3283 -10.2272 6
      vertex -13.3283 -10.2272 1.5
    endloop
  endfacet
  facet normal 0.946927 0.321449 0
    outer loop
      vertex -15.5212 -6.42908 6
      vertex -16.2276 -4.34816 1.5
      vertex -16.2276 -4.34816 6
    endloop
  endfacet
  facet normal 0.946927 0.321449 0
    outer loop
      vertex -16.2276 -4.34816 1.5
      vertex -15.5212 -6.42908 6
      vertex -15.5212 -6.42908 1.5
    endloop
  endfacet
  facet normal -0.659335 0.751849 0
    outer loop
      vertex 11.8794 -11.8794 1.5
      vertex 10.2272 -13.3283 6
      vertex 11.8794 -11.8794 6
    endloop
  endfacet
  facet normal -0.659335 0.751849 0
    outer loop
      vertex 10.2272 -13.3283 6
      vertex 11.8794 -11.8794 1.5
      vertex 10.2272 -13.3283 1.5
    endloop
  endfacet
  facet normal 0.442307 -0.896864 0
    outer loop
      vertex -8.4 14.5492 1.5
      vertex -6.42908 15.5212 6
      vertex -8.4 14.5492 6
    endloop
  endfacet
  facet normal 0.442307 -0.896864 0
    outer loop
      vertex -6.42908 15.5212 6
      vertex -8.4 14.5492 1.5
      vertex -6.42908 15.5212 1.5
    endloop
  endfacet
  facet normal 0.896864 -0.442307 0
    outer loop
      vertex -15.5212 6.42908 6
      vertex -14.5492 8.4 1.5
      vertex -14.5492 8.4 6
    endloop
  endfacet
  facet normal 0.896864 -0.442307 0
    outer loop
      vertex -14.5492 8.4 1.5
      vertex -15.5212 6.42908 6
      vertex -15.5212 6.42908 1.5
    endloop
  endfacet
  facet normal -0.751849 -0.659335 0
    outer loop
      vertex 13.3283 10.2272 1.5
      vertex 11.8794 11.8794 6
      vertex 11.8794 11.8794 1.5
    endloop
  endfacet
  facet normal -0.751849 -0.659335 0
    outer loop
      vertex 11.8794 11.8794 6
      vertex 13.3283 10.2272 1.5
      vertex 13.3283 10.2272 6
    endloop
  endfacet
  facet normal 0.980787 -0.195082 0
    outer loop
      vertex -16.6563 2.19284 6
      vertex -16.2276 4.34816 1.5
      vertex -16.2276 4.34816 6
    endloop
  endfacet
  facet normal 0.980787 -0.195082 0
    outer loop
      vertex -16.2276 4.34816 1.5
      vertex -16.6563 2.19284 6
      vertex -16.6563 2.19284 1.5
    endloop
  endfacet
  facet normal 0.195044 0.980794 -0
    outer loop
      vertex -3 -16.4957 1.5
      vertex -4.34816 -16.2276 6
      vertex -3 -16.4957 6
    endloop
  endfacet
  facet normal 0.195044 0.980794 0
    outer loop
      vertex -4.34816 -16.2276 6
      vertex -3 -16.4957 1.5
      vertex -4.34816 -16.2276 1.5
    endloop
  endfacet
  facet normal -0.831469 0.555571 0
    outer loop
      vertex 13.3283 -10.2272 1.5
      vertex 14.5492 -8.4 6
      vertex 14.5492 -8.4 1.5
    endloop
  endfacet
  facet normal -0.831469 0.555571 0
    outer loop
      vertex 14.5492 -8.4 6
      vertex 13.3283 -10.2272 1.5
      vertex 13.3283 -10.2272 6
    endloop
  endfacet
  facet normal 0.442307 0.896864 -0
    outer loop
      vertex -6.42908 -15.5212 1.5
      vertex -8.4 -14.5492 6
      vertex -6.42908 -15.5212 6
    endloop
  endfacet
  facet normal 0.442307 0.896864 0
    outer loop
      vertex -8.4 -14.5492 6
      vertex -6.42908 -15.5212 1.5
      vertex -8.4 -14.5492 1.5
    endloop
  endfacet
  facet normal 0.659335 -0.751849 0
    outer loop
      vertex -11.8794 11.8794 1.5
      vertex -10.2272 13.3283 6
      vertex -11.8794 11.8794 6
    endloop
  endfacet
  facet normal 0.659335 -0.751849 0
    outer loop
      vertex -10.2272 13.3283 6
      vertex -11.8794 11.8794 1.5
      vertex -10.2272 13.3283 1.5
    endloop
  endfacet
  facet normal -0.896864 0.442307 0
    outer loop
      vertex 14.5492 -8.4 1.5
      vertex 15.5212 -6.42908 6
      vertex 15.5212 -6.42908 1.5
    endloop
  endfacet
  facet normal -0.896864 0.442307 0
    outer loop
      vertex 15.5212 -6.42908 6
      vertex 14.5492 -8.4 1.5
      vertex 14.5492 -8.4 6
    endloop
  endfacet
  facet normal -0.946927 -0.321449 0
    outer loop
      vertex 16.2276 4.34816 1.5
      vertex 15.5212 6.42908 6
      vertex 15.5212 6.42908 1.5
    endloop
  endfacet
  facet normal -0.946927 -0.321449 0
    outer loop
      vertex 15.5212 6.42908 6
      vertex 16.2276 4.34816 1.5
      vertex 16.2276 4.34816 6
    endloop
  endfacet
  facet normal 0.980787 0.195082 0
    outer loop
      vertex -16.2276 -4.34816 6
      vertex -16.6563 -2.19284 1.5
      vertex -16.6563 -2.19284 6
    endloop
  endfacet
  facet normal 0.980787 0.195082 0
    outer loop
      vertex -16.6563 -2.19284 1.5
      vertex -16.2276 -4.34816 6
      vertex -16.2276 -4.34816 1.5
    endloop
  endfacet
  facet normal 0.555571 -0.831469 0
    outer loop
      vertex -10.2272 13.3283 1.5
      vertex -8.4 14.5492 6
      vertex -10.2272 13.3283 6
    endloop
  endfacet
  facet normal 0.555571 -0.831469 0
    outer loop
      vertex -8.4 14.5492 6
      vertex -10.2272 13.3283 1.5
      vertex -8.4 14.5492 1.5
    endloop
  endfacet
  facet normal -0.321449 0.946927 0
    outer loop
      vertex 6.42908 -15.5212 1.5
      vertex 4.34816 -16.2276 6
      vertex 6.42908 -15.5212 6
    endloop
  endfacet
  facet normal -0.321449 0.946927 0
    outer loop
      vertex 4.34816 -16.2276 6
      vertex 6.42908 -15.5212 1.5
      vertex 4.34816 -16.2276 1.5
    endloop
  endfacet
  facet normal -0.0653912 -0.99786 0
    outer loop
      vertex 0 16.8 1.5
      vertex 2.19284 16.6563 6
      vertex 0 16.8 6
    endloop
  endfacet
  facet normal -0.0653912 -0.99786 -0
    outer loop
      vertex 2.19284 16.6563 6
      vertex 0 16.8 1.5
      vertex 2.19284 16.6563 1.5
    endloop
  endfacet
  facet normal -0.831469 -0.555571 0
    outer loop
      vertex 14.5492 8.4 1.5
      vertex 13.3283 10.2272 6
      vertex 13.3283 10.2272 1.5
    endloop
  endfacet
  facet normal -0.831469 -0.555571 0
    outer loop
      vertex 13.3283 10.2272 6
      vertex 14.5492 8.4 1.5
      vertex 14.5492 8.4 6
    endloop
  endfacet
  facet normal -0.555571 0.831469 0
    outer loop
      vertex 10.2272 -13.3283 1.5
      vertex 8.4 -14.5492 6
      vertex 10.2272 -13.3283 6
    endloop
  endfacet
  facet normal -0.555571 0.831469 0
    outer loop
      vertex 8.4 -14.5492 6
      vertex 10.2272 -13.3283 1.5
      vertex 8.4 -14.5492 1.5
    endloop
  endfacet
  facet normal -0.442307 -0.896864 0
    outer loop
      vertex 6.42908 15.5212 1.5
      vertex 8.4 14.5492 6
      vertex 6.42908 15.5212 6
    endloop
  endfacet
  facet normal -0.442307 -0.896864 -0
    outer loop
      vertex 8.4 14.5492 6
      vertex 6.42908 15.5212 1.5
      vertex 8.4 14.5492 1.5
    endloop
  endfacet
  facet normal 0 0 1
    outer loop
      vertex 3 -15.5 1.5
      vertex 16.8 0 1.5
      vertex 16.6563 2.19284 1.5
    endloop
  endfacet
  facet normal 0 0 1
    outer loop
      vertex 3 -15.5 1.5
      vertex 16.6563 2.19284 1.5
      vertex 16.2276 4.34816 1.5
    endloop
  endfacet
  facet normal 0 0 1
    outer loop
      vertex 16.8 0 1.5
      vertex 3 -15.5 1.5
      vertex 16.6563 -2.19284 1.5
    endloop
  endfacet
  facet normal 0 0 1
    outer loop
      vertex 3 -15.5 1.5
      vertex 16.2276 4.34816 1.5
      vertex 15.5212 6.42908 1.5
    endloop
  endfacet
  facet normal 0 0 1
    outer loop
      vertex 16.6563 -2.19284 1.5
      vertex 3 -15.5 1.5
      vertex 16.2276 -4.34816 1.5
    endloop
  endfacet
  facet normal 0 0 1
    outer loop
      vertex 3 -15.5 1.5
      vertex 15.5212 6.42908 1.5
      vertex 14.5492 8.4 1.5
    endloop
  endfacet
  facet normal 0 0 1
    outer loop
      vertex 16.2276 -4.34816 1.5
      vertex 3 -15.5 1.5
      vertex 15.5212 -6.42908 1.5
    endloop
  endfacet
  facet normal 0 0 1
    outer loop
      vertex 3 -15.5 1.5
      vertex 14.5492 8.4 1.5
      vertex 13.3283 10.2272 1.5
    endloop
  endfacet
  facet normal 0 0 1
    outer loop
      vertex 15.5212 -6.42908 1.5
      vertex 3 -15.5 1.5
      vertex 14.5492 -8.4 1.5
    endloop
  endfacet
  facet normal 0 0 1
    outer loop
      vertex 3 -15.5 1.5
      vertex 13.3283 10.2272 1.5
      vertex 11.8794 11.8794 1.5
    endloop
  endfacet
  facet normal 0 0 1
    outer loop
      vertex 14.5492 -8.4 1.5
      vertex 3 -15.5 1.5
      vertex 13.3283 -10.2272 1.5
    endloop
  endfacet
  facet normal 0 0 1
    outer loop
      vertex 3 -15.5 1.5
      vertex 11.8794 11.8794 1.5
      vertex 10.2272 13.3283 1.5
    endloop
  endfacet
  facet normal 0 0 1
    outer loop
      vertex 13.3283 -10.2272 1.5
      vertex 3 -15.5 1.5
      vertex 11.8794 -11.8794 1.5
    endloop
  endfacet
  facet normal 0 0 1
    outer loop
      vertex 3 -15.5 1.5
      vertex 10.2272 13.3283 1.5
      vertex 8.4 14.5492 1.5
    endloop
  endfacet
  facet normal 0 0 1
    outer loop
      vertex 11.8794 -11.8794 1.5
      vertex 3 -15.5 1.5
      vertex 10.2272 -13.3283 1.5
    endloop
  endfacet
  facet normal 0 0 1
    outer loop
      vertex 3 -15.5 1.5
      vertex 8.4 14.5492 1.5
      vertex 6.42908 15.5212 1.5
    endloop
  endfacet
  facet normal 0 0 1
    outer loop
      vertex 10.2272 -13.3283 1.5
      vertex 3 -15.5 1.5
      vertex 8.4 -14.5492 1.5
    endloop
  endfacet
  facet normal 0 0 1
    outer loop
      vertex 3 -15.5 1.5
      vertex 6.42908 15.5212 1.5
      vertex 4.34816 16.2276 1.5
    endloop
  endfacet
  facet normal 0 0 1
    outer loop
      vertex 8.4 -14.5492 1.5
      vertex 3 -15.5 1.5
      vertex 6.42908 -15.5212 1.5
    endloop
  endfacet
  facet normal 0 0 1
    outer loop
      vertex 6.42908 -15.5212 1.5
      vertex 3 -15.5 1.5
      vertex 4.34816 -16.2276 1.5
    endloop
  endfacet
  facet normal 0 0 1
    outer loop
      vertex 2.19284 16.6563 1.5
      vertex 3 -15.5 1.5
      vertex 4.34816 16.2276 1.5
    endloop
  endfacet
  facet normal 0 0 1
    outer loop
      vertex 0 16.8 1.5
      vertex 3 -15.5 1.5
      vertex 2.19284 16.6563 1.5
    endloop
  endfacet
  facet normal -0 0 1
    outer loop
      vertex -2.19284 16.6563 1.5
      vertex 3 -15.5 1.5
      vertex 0 16.8 1.5
    endloop
  endfacet
  facet normal 0 0 1
    outer loop
      vertex -2.19284 16.6563 1.5
      vertex -3 -15.5 1.5
      vertex 3 -15.5 1.5
    endloop
  endfacet
  facet normal -0 0 1
    outer loop
      vertex -4.34816 16.2276 1.5
      vertex -3 -15.5 1.5
      vertex -2.19284 16.6563 1.5
    endloop
  endfacet
  facet normal -0 0 1
    outer loop
      vertex -6.42908 15.5212 1.5
      vertex -3 -15.5 1.5
      vertex -4.34816 16.2276 1.5
    endloop
  endfacet
  facet normal -0 0 1
    outer loop
      vertex -8.4 14.5492 1.5
      vertex -3 -15.5 1.5
      vertex -6.42908 15.5212 1.5
    endloop
  endfacet
  facet normal 0 -0 1
    outer loop
      vertex -4.34816 -16.2276 1.5
      vertex -3 -15.5 1.5
      vertex -6.42908 -15.5212 1.5
    endloop
  endfacet
  facet normal 0 0 1
    outer loop
      vertex -3 -15.5 1.5
      vertex -4.34816 -16.2276 1.5
      vertex -3 -16.4957 1.5
    endloop
  endfacet
  facet normal -0 0 1
    outer loop
      vertex -10.2272 13.3283 1.5
      vertex -3 -15.5 1.5
      vertex -8.4 14.5492 1.5
    endloop
  endfacet
  facet normal 0 0 1
    outer loop
      vertex -3 -15.5 1.5
      vertex -8.4 -14.5492 1.5
      vertex -6.42908 -15.5212 1.5
    endloop
  endfacet
  facet normal -0 0 1
    outer loop
      vertex -11.8794 11.8794 1.5
      vertex -3 -15.5 1.5
      vertex -10.2272 13.3283 1.5
    endloop
  endfacet
  facet normal 0 0 1
    outer loop
      vertex -3 -15.5 1.5
      vertex -10.2272 -13.3283 1.5
      vertex -8.4 -14.5492 1.5
    endloop
  endfacet
  facet normal -0 0 1
    outer loop
      vertex -13.3283 10.2272 1.5
      vertex -3 -15.5 1.5
      vertex -11.8794 11.8794 1.5
    endloop
  endfacet
  facet normal 0 0 1
    outer loop
      vertex -3 -15.5 1.5
      vertex -11.8794 -11.8794 1.5
      vertex -10.2272 -13.3283 1.5
    endloop
  endfacet
  facet normal -0 0 1
    outer loop
      vertex -14.5492 8.4 1.5
      vertex -3 -15.5 1.5
      vertex -13.3283 10.2272 1.5
    endloop
  endfacet
  facet normal 0 0 1
    outer loop
      vertex -3 -15.5 1.5
      vertex -13.3283 -10.2272 1.5
      vertex -11.8794 -11.8794 1.5
    endloop
  endfacet
  facet normal -0 0 1
    outer loop
      vertex -15.5212 6.42908 1.5
      vertex -3 -15.5 1.5
      vertex -14.5492 8.4 1.5
    endloop
  endfacet
  facet normal 0 0 1
    outer loop
      vertex -3 -15.5 1.5
      vertex -14.5492 -8.4 1.5
      vertex -13.3283 -10.2272 1.5
    endloop
  endfacet
  facet normal -0 0 1
    outer loop
      vertex -16.2276 4.34816 1.5
      vertex -3 -15.5 1.5
      vertex -15.5212 6.42908 1.5
    endloop
  endfacet
  facet normal 0 0 1
    outer loop
      vertex -3 -15.5 1.5
      vertex -15.5212 -6.42908 1.5
      vertex -14.5492 -8.4 1.5
    endloop
  endfacet
  facet normal -0 0 1
    outer loop
      vertex -16.6563 2.19284 1.5
      vertex -3 -15.5 1.5
      vertex -16.2276 4.34816 1.5
    endloop
  endfacet
  facet normal 0 0 1
    outer loop
      vertex -3 -15.5 1.5
      vertex -16.2276 -4.34816 1.5
      vertex -15.5212 -6.42908 1.5
    endloop
  endfacet
  facet normal -0 0 1
    outer loop
      vertex -16.8 0 1.5
      vertex -3 -15.5 1.5
      vertex -16.6563 2.19284 1.5
    endloop
  endfacet
  facet normal 0 0 1
    outer loop
      vertex -3 -15.5 1.5
      vertex -16.6563 -2.19284 1.5
      vertex -16.2276 -4.34816 1.5
    endloop
  endfacet
  facet normal 0 0 1
    outer loop
      vertex -3 -15.5 1.5
      vertex -16.8 0 1.5
      vertex -16.6563 -2.19284 1.5
    endloop
  endfacet
  facet normal 0 0 1
    outer loop
      vertex 4.34816 -16.2276 1.5
      vertex 3 -15.5 1.5
      vertex 3 -16.4957 1.5
    endloop
  endfacet
  facet normal -0.555571 -0.831469 0
    outer loop
      vertex 8.4 14.5492 1.5
      vertex 10.2272 13.3283 6
      vertex 8.4 14.5492 6
    endloop
  endfacet
  facet normal -0.555571 -0.831469 -0
    outer loop
      vertex 10.2272 13.3283 6
      vertex 8.4 14.5492 1.5
      vertex 10.2272 13.3283 1.5
    endloop
  endfacet
  facet normal 0.659335 0.751849 -0
    outer loop
      vertex -10.2272 -13.3283 1.5
      vertex -11.8794 -11.8794 6
      vertex -10.2272 -13.3283 6
    endloop
  endfacet
  facet normal 0.659335 0.751849 0
    outer loop
      vertex -11.8794 -11.8794 6
      vertex -10.2272 -13.3283 1.5
      vertex -11.8794 -11.8794 1.5
    endloop
  endfacet
  facet normal -0.659335 -0.751849 0
    outer loop
      vertex 10.2272 13.3283 1.5
      vertex 11.8794 11.8794 6
      vertex 10.2272 13.3283 6
    endloop
  endfacet
  facet normal -0.659335 -0.751849 -0
    outer loop
      vertex 11.8794 11.8794 6
      vertex 10.2272 13.3283 1.5
      vertex 11.8794 11.8794 1.5
    endloop
  endfacet
  facet normal 0.99786 -0.0653912 0
    outer loop
      vertex -16.8 0 6
      vertex -16.6563 2.19284 1.5
      vertex -16.6563 2.19284 6
    endloop
  endfacet
  facet normal 0.99786 -0.0653912 0
    outer loop
      vertex -16.6563 2.19284 1.5
      vertex -16.8 0 6
      vertex -16.8 0 1.5
    endloop
  endfacet
  facet normal 0.751849 -0.659335 0
    outer loop
      vertex -13.3283 10.2272 6
      vertex -11.8794 11.8794 1.5
      vertex -11.8794 11.8794 6
    endloop
  endfacet
  facet normal 0.751849 -0.659335 0
    outer loop
      vertex -11.8794 11.8794 1.5
      vertex -13.3283 10.2272 6
      vertex -13.3283 10.2272 1.5
    endloop
  endfacet
  facet normal -0.99786 0.0653912 0
    outer loop
      vertex 16.6563 -2.19284 1.5
      vertex 16.8 0 6
      vertex 16.8 0 1.5
    endloop
  endfacet
  facet normal -0.99786 0.0653912 0
    outer loop
      vertex 16.8 0 6
      vertex 16.6563 -2.19284 1.5
      vertex 16.6563 -2.19284 6
    endloop
  endfacet
  facet normal 0.321449 -0.946927 0
    outer loop
      vertex -6.42908 15.5212 1.5
      vertex -4.34816 16.2276 6
      vertex -6.42908 15.5212 6
    endloop
  endfacet
  facet normal 0.321449 -0.946927 0
    outer loop
      vertex -4.34816 16.2276 6
      vertex -6.42908 15.5212 1.5
      vertex -4.34816 16.2276 1.5
    endloop
  endfacet
  facet normal -0.195044 0.980794 0
    outer loop
      vertex 4.34816 -16.2276 1.5
      vertex 3 -16.4957 6
      vertex 4.34816 -16.2276 6
    endloop
  endfacet
  facet normal -0.195044 0.980794 0
    outer loop
      vertex 3 -16.4957 6
      vertex 4.34816 -16.2276 1.5
      vertex 3 -16.4957 1.5
    endloop
  endfacet
  facet normal 0.896864 0.442307 0
    outer loop
      vertex -14.5492 -8.4 6
      vertex -15.5212 -6.42908 1.5
      vertex -15.5212 -6.42908 6
    endloop
  endfacet
  facet normal 0.896864 0.442307 0
    outer loop
      vertex -15.5212 -6.42908 1.5
      vertex -14.5492 -8.4 6
      vertex -14.5492 -8.4 1.5
    endloop
  endfacet
  facet normal 0.195082 -0.980787 0
    outer loop
      vertex -4.34816 16.2276 1.5
      vertex -2.19284 16.6563 6
      vertex -4.34816 16.2276 6
    endloop
  endfacet
  facet normal 0.195082 -0.980787 0
    outer loop
      vertex -2.19284 16.6563 6
      vertex -4.34816 16.2276 1.5
      vertex -2.19284 16.6563 1.5
    endloop
  endfacet
  facet normal -0.321449 -0.946927 0
    outer loop
      vertex 4.34816 16.2276 1.5
      vertex 6.42908 15.5212 6
      vertex 4.34816 16.2276 6
    endloop
  endfacet
  facet normal -0.321449 -0.946927 -0
    outer loop
      vertex 6.42908 15.5212 6
      vertex 4.34816 16.2276 1.5
      vertex 6.42908 15.5212 1.5
    endloop
  endfacet
  facet normal 0.99786 0.0653912 0
    outer loop
      vertex -16.6563 -2.19284 6
      vertex -16.8 0 1.5
      vertex -16.8 0 6
    endloop
  endfacet
  facet normal 0.99786 0.0653912 0
    outer loop
      vertex -16.8 0 1.5
      vertex -16.6563 -2.19284 6
      vertex -16.6563 -2.19284 1.5
    endloop
  endfacet
  facet normal -0.195082 -0.980787 0
    outer loop
      vertex 2.19284 16.6563 1.5
      vertex 4.34816 16.2276 6
      vertex 2.19284 16.6563 6
    endloop
  endfacet
  facet normal -0.195082 -0.980787 -0
    outer loop
      vertex 4.34816 16.2276 6
      vertex 2.19284 16.6563 1.5
      vertex 4.34816 16.2276 1.5
    endloop
  endfacet
  facet normal 0.946927 -0.321449 0
    outer loop
      vertex -16.2276 4.34816 6
      vertex -15.5212 6.42908 1.5
      vertex -15.5212 6.42908 6
    endloop
  endfacet
  facet normal 0.946927 -0.321449 0
    outer loop
      vertex -15.5212 6.42908 1.5
      vertex -16.2276 4.34816 6
      vertex -16.2276 4.34816 1.5
    endloop
  endfacet
  facet normal -0.896864 -0.442307 0
    outer loop
      vertex 15.5212 6.42908 1.5
      vertex 14.5492 8.4 6
      vertex 14.5492 8.4 1.5
    endloop
  endfacet
  facet normal -0.896864 -0.442307 0
    outer loop
      vertex 14.5492 8.4 6
      vertex 15.5212 6.42908 1.5
      vertex 15.5212 6.42908 6
    endloop
  endfacet
  facet normal -0.442307 0.896864 0
    outer loop
      vertex 8.4 -14.5492 1.5
      vertex 6.42908 -15.5212 6
      vertex 8.4 -14.5492 6
    endloop
  endfacet
  facet normal -0.442307 0.896864 0
    outer loop
      vertex 6.42908 -15.5212 6
      vertex 8.4 -14.5492 1.5
      vertex 6.42908 -15.5212 1.5
    endloop
  endfacet
  facet normal -0.946927 0.321449 0
    outer loop
      vertex 15.5212 -6.42908 1.5
      vertex 16.2276 -4.34816 6
      vertex 16.2276 -4.34816 1.5
    endloop
  endfacet
  facet normal -0.946927 0.321449 0
    outer loop
      vertex 16.2276 -4.34816 6
      vertex 15.5212 -6.42908 1.5
      vertex 15.5212 -6.42908 6
    endloop
  endfacet
  facet normal 0.0653912 -0.99786 0
    outer loop
      vertex -2.19284 16.6563 1.5
      vertex 0 16.8 6
      vertex -2.19284 16.6563 6
    endloop
  endfacet
  facet normal 0.0653912 -0.99786 0
    outer loop
      vertex 0 16.8 6
      vertex -2.19284 16.6563 1.5
      vertex 0 16.8 1.5
    endloop
  endfacet
  facet normal 0.321449 0.946927 -0
    outer loop
      vertex -4.34816 -16.2276 1.5
      vertex -6.42908 -15.5212 6
      vertex -4.34816 -16.2276 6
    endloop
  endfacet
  facet normal 0.321449 0.946927 0
    outer loop
      vertex -6.42908 -15.5212 6
      vertex -4.34816 -16.2276 1.5
      vertex -6.42908 -15.5212 1.5
    endloop
  endfacet
  facet normal 0.751849 0.659335 0
    outer loop
      vertex -11.8794 -11.8794 6
      vertex -13.3283 -10.2272 1.5
      vertex -13.3283 -10.2272 6
    endloop
  endfacet
  facet normal 0.751849 0.659335 0
    outer loop
      vertex -13.3283 -10.2272 1.5
      vertex -11.8794 -11.8794 6
      vertex -11.8794 -11.8794 1.5
    endloop
  endfacet
  facet normal 0.555571 0.831469 -0
    outer loop
      vertex -8.4 -14.5492 1.5
      vertex -10.2272 -13.3283 6
      vertex -8.4 -14.5492 6
    endloop
  endfacet
  facet normal 0.555571 0.831469 0
    outer loop
      vertex -10.2272 -13.3283 6
      vertex -8.4 -14.5492 1.5
      vertex -10.2272 -13.3283 1.5
    endloop
  endfacet
  facet normal 0.831469 -0.555571 0
    outer loop
      vertex -14.5492 8.4 6
      vertex -13.3283 10.2272 1.5
      vertex -13.3283 10.2272 6
    endloop
  endfacet
  facet normal 0.831469 -0.555571 0
    outer loop
      vertex -13.3283 10.2272 1.5
      vertex -14.5492 8.4 6
      vertex -14.5492 8.4 1.5
    endloop
  endfacet
  facet normal -0.751849 0.659335 0
    outer loop
      vertex 11.8794 -11.8794 1.5
      vertex 13.3283 -10.2272 6
      vertex 13.3283 -10.2272 1.5
    endloop
  endfacet
  facet normal -0.751849 0.659335 0
    outer loop
      vertex 13.3283 -10.2272 6
      vertex 11.8794 -11.8794 1.5
      vertex 11.8794 -11.8794 6
    endloop
  endfacet
  facet normal -1 0 0
    outer loop
      vertex 3 -15.5 0
      vertex 3 -16.4957 1.5
      vertex 3 -15.5 1.5
    endloop
  endfacet
  facet normal -1 0 0
    outer loop
      vertex 3 -16.4957 1.5
      vertex 3 -16.9027 1.5
      vertex 3 -16.4957 6
    endloop
  endfacet
  facet normal -1 0 0
    outer loop
      vertex 3 -15.5 0
      vertex 3 -16.9027 1.5
      vertex 3 -16.4957 1.5
    endloop
  endfacet
  facet normal -1 0 0
    outer loop
      vertex 3 -18.4797 0
      vertex 3 -16.9027 1.5
      vertex 3 -15.5 0
    endloop
  endfacet
  facet normal -1 -0 0
    outer loop
      vertex 3 -16.9027 1.5
      vertex 3 -18.4797 0
      vertex 3 -18.4797 1.5
    endloop
  endfacet
  facet normal -1 -0 0
    outer loop
      vertex 3 -16.4957 6
      vertex 3 -16.9027 1.5
      vertex 3 -16.9027 6
    endloop
  endfacet
  facet normal 1 0 0
    outer loop
      vertex -3 -16.4957 6
      vertex -3 -16.9027 6
      vertex -3 -16.4957 1.5
    endloop
  endfacet
  facet normal 1 -0 0
    outer loop
      vertex -3 -16.4957 1.5
      vertex -3 -15.5 0
      vertex -3 -15.5 1.5
    endloop
  endfacet
  facet normal 1 0 0
    outer loop
      vertex -3 -16.9027 1.5
      vertex -3 -16.4957 1.5
      vertex -3 -16.9027 6
    endloop
  endfacet
  facet normal 1 -0 0
    outer loop
      vertex -3 -16.9027 1.5
      vertex -3 -15.5 0
      vertex -3 -16.4957 1.5
    endloop
  endfacet
  facet normal 1 0 0
    outer loop
      vertex -3 -18.4797 0
      vertex -3 -16.9027 1.5
      vertex -3 -18.4797 1.5
    endloop
  endfacet
  facet normal 1 0 0
    outer loop
      vertex -3 -16.9027 1.5
      vertex -3 -18.4797 0
      vertex -3 -15.5 0
    endloop
  endfacet
  facet normal 0 -1 0
    outer loop
      vertex -3 -15.5 0
      vertex 3 -15.5 1.5
      vertex -3 -15.5 1.5
    endloop
  endfacet
  facet normal 0 -1 -0
    outer loop
      vertex 3 -15.5 1.5
      vertex -3 -15.5 0
      vertex 3 -15.5 0
    endloop
  endfacet
endsolid OpenSCAD_Model
